<svg width="119" height="34" viewBox="0 0 119 34" fill="none" xmlns="http://www.w3.org/2000/svg">
    <g clip-path="url(#clip0)">
        <path
                d="M100.828 18.2636C100.831 18.4662 100.853 18.7164 100.972 18.8811C101.211 19.2168 101.898 19.2358 102.256 19.2358H105.179C105.973 19.2358 106.503 19.0743 106.503 18.2002V17.9564C106.136 18.0767 105.693 18.1306 105.169 18.1306H102.256C100.369 18.1306 99.4277 17.4687 99.4277 15.4703V13.1807H100.828V15.7427C100.828 15.9485 100.847 16.2114 100.972 16.3856C101.211 16.7213 101.898 16.7403 102.256 16.7403H105.179C105.973 16.7403 106.503 16.5788 106.503 15.7047V13.206V13.1838H107.9V13.206V15.4545V17.9532C107.9 19.9262 107.059 20.6324 105.169 20.6324H102.256C100.464 20.6324 99.5282 20.037 99.4372 18.2667H100.828V18.2636Z"
                fill="#777773"/>
        <path
                d="M61.9941 16.8987C61.9941 17.2629 61.9721 17.9565 61.6425 18.1971C61.4699 18.3238 61.2093 18.3428 61.0053 18.3428H59.0025H58.1989V14.6344H59.0025H60.9645C61.834 14.6344 61.9941 15.1727 61.9941 15.974V16.8987ZM56.7957 18.346H55.9921H53.9925C53.7885 18.346 53.528 18.327 53.3553 18.2003C53.0226 17.9596 53.0037 17.2629 53.0037 16.9019V15.974C53.0037 15.1727 53.1638 14.6344 54.0333 14.6344H55.9953H56.7989V18.346H56.7957ZM62.3896 13.5734C61.9815 13.3359 61.4353 13.2188 60.7165 13.2188H59.0025H55.9953H54.2813C53.258 13.2188 52.5831 13.4531 52.1656 13.944C51.7826 14.3968 51.6194 15.0651 51.6194 15.9803V16.8955C51.6194 17.8234 51.7763 18.5265 52.1656 19.0015C52.5768 19.5051 53.2423 19.7553 54.2625 19.7553H55.9953H56.7989V20.6927H58.2021V19.7616H59.0057H60.7385C61.451 19.7616 61.991 19.6381 62.3928 19.3911C63.1085 18.954 63.3816 18.1243 63.3816 16.8987V15.9835C63.3784 14.7705 63.0959 13.9883 62.3896 13.5734Z"
                fill="#777773"/>
        <path
                d="M79.7267 13.1807H81.1299V20.6292H79.7267V17.6112H74.4562V20.6292H73.053V13.1807H74.4562V16.1956H79.7267V13.1807Z"
                fill="#777773"/>
        <path
                d="M49.5223 13.2472H50.9255V20.6958H49.5223V17.6809H44.2518V20.6958H42.8486V13.2472H44.2518V16.2653H49.5223V13.2472Z"
                fill="#777773"/>
        <path
                d="M40.6859 15.2709V20.6958H42.0891V13.2472H40.5729L35.4154 19.2992V13.2472H34.0122V20.6958H36.0715L40.6859 15.2709Z"
                fill="#777773"/>
        <path
                d="M88.507 15.2043V20.6292H89.9101V13.1807H88.3908L83.2364 19.2295V13.1807H81.8333V20.6292H83.8894L88.507 15.2043Z"
                fill="#777773"/>
        <path
                d="M70.9498 15.2043V20.6292H72.353V13.1807H70.8337L65.6793 19.2295V13.1807H64.2761V20.6292H66.3322L70.9498 15.2043Z"
                fill="#777773"/>
        <path d="M95.5634 14.5773V20.6292H94.1602V14.5773H90.9207V13.1807H98.8249V14.5773H95.5634Z" fill="#777773"/>
        <path
                d="M116.959 13.1807L113.795 18.5771L110.615 13.1807H108.575V20.6292H109.978V14.723L113.409 20.6292H114.175L117.597 14.7388V20.6292H119V13.1807H116.959Z"
                fill="#777773"/>
        <path
                d="M16.8193 7.03055C22.2687 7.03055 26.6886 11.4896 26.6886 16.9873C26.6886 17.2724 26.676 17.5574 26.6541 17.8361H24.4787C24.5101 17.5574 24.5258 17.2755 24.5258 16.9873C24.5258 12.6962 21.0759 9.21572 16.8224 9.21572C13.9219 9.21572 11.3949 10.834 10.0828 13.225H23.0064C23.4396 13.9883 23.7661 14.7832 23.9199 15.6541H8.54148H7.04099C7.68765 10.7865 11.8187 7.03055 16.8193 7.03055ZM16.8193 24.7589C19.5189 24.7589 21.8921 23.356 23.2701 21.2373H25.7469C24.1679 24.6101 20.762 26.9473 16.8193 26.9473C11.8187 26.9473 7.68451 23.1913 7.03785 18.3238H9.22894H30.8259V15.6541H27.0841C26.9805 14.8243 26.7796 14.0041 26.4751 13.225H32.3421H33.2587V13.1205C33.0327 12.1483 32.7251 11.2109 32.3421 10.3115C30.5654 6.12481 27.1689 2.80905 22.9499 1.15276C21.0571 0.411699 19.0009 0 16.8507 0C14.7004 0 12.6443 0.411699 10.7545 1.15276C7.88227 2.28018 5.39297 4.17399 3.53462 6.59035C1.32156 9.46908 0 13.0762 0 17C0 20.9238 1.32156 24.5309 3.53462 27.4096C5.95173 30.5512 9.43298 32.8187 13.4353 33.6516C14.5372 33.8797 15.6798 34.0032 16.8507 34.0032C18.0153 34.0032 19.1516 33.8797 20.2503 33.6516C25.7061 32.5242 30.1981 28.7366 32.3421 23.6885C32.7251 22.7891 33.0327 21.8517 33.2587 20.8795V20.7496H32.3421H10.0796C11.3949 23.1406 13.9188 24.7589 16.8193 24.7589Z"
                fill="#CD3433"/>
        <path d="M74.8989 22.5864V22.9855H73.6715V24.5879H73.1943V22.5864H74.8989Z" fill="#CD3433"/>
        <path
                d="M76.2518 23.5998H77.0429C77.1214 23.5998 77.1841 23.5903 77.2281 23.5682C77.272 23.546 77.3034 23.5143 77.3223 23.4668C77.3411 23.4225 77.3505 23.3623 77.3505 23.2863C77.3505 23.1818 77.3285 23.1026 77.2846 23.0551C77.2407 23.0076 77.159 22.9823 77.0429 22.9823H76.2518V23.5998ZM75.7778 24.5879V22.5864H77.1308C77.2595 22.5864 77.3662 22.5991 77.4541 22.6244C77.542 22.6498 77.6111 22.6909 77.6676 22.7448C77.7241 22.7986 77.7649 22.8714 77.79 22.9601C77.8151 23.0488 77.8308 23.1565 77.8308 23.2863C77.8308 23.4542 77.8057 23.5903 77.7586 23.6948C77.7115 23.7994 77.6362 23.8754 77.5357 23.9229C77.4353 23.9704 77.3003 23.9957 77.1402 23.9957H76.255V24.5879H75.7778V24.5879Z"
                fill="#CD3433"/>
        <path
                d="M80.3672 22.5864H80.9291L80.0062 24.0907C79.9309 24.2111 79.8681 24.2997 79.821 24.3631C79.7739 24.4264 79.7237 24.4739 79.6766 24.5056C79.6295 24.5372 79.5762 24.5594 79.5197 24.5721C79.46 24.5816 79.3847 24.5879 79.2874 24.5879H79.1022V24.2111H79.1964C79.3784 24.2111 79.4695 24.1699 79.4695 24.0907C79.4695 24.0654 79.4569 24.0369 79.4349 23.9989L78.5183 22.5896H79.0802L79.7426 23.717L80.3672 22.5864Z"
                fill="#CD3433"/>
        <path d="M81.739 24.5879V22.5864H82.213H83.4372H83.9144V24.5879H83.4404V22.9823H82.213V24.5879H81.739Z"
              fill="#CD3433"/>
        <path d="M84.7932 24.5879V22.5864H85.2672H86.4915H86.9686V24.5879H86.4946V22.9823H85.2672V24.5879H84.7932Z"
              fill="#CD3433"/>
        <path
                d="M88.7203 23.7075H89.5114L89.1347 22.9633H89.1127L88.7203 23.7075ZM88.2714 24.5879H87.7158L88.7674 22.5864H89.4706L90.5127 24.5879H89.954L89.6997 24.0844H88.5257L88.2714 24.5879Z"
                fill="#CD3433"/>
        <path
                d="M92.8418 24.5879V22.5864H93.3127V23.3338H93.5952L94.4616 22.5864H95.171L94.0033 23.5238L95.2181 24.5879H94.5212L93.6015 23.7328H93.3127V24.5879H92.8418Z"
                fill="#CD3433"/>
        <path
                d="M96.48 23.8564C96.48 23.945 96.4926 24.0115 96.5146 24.0622C96.5365 24.1097 96.5742 24.1446 96.6244 24.1636C96.6778 24.1826 96.7531 24.1921 96.8504 24.1921H97.4783C97.5819 24.1921 97.6603 24.1826 97.7106 24.1636C97.7608 24.1446 97.7985 24.1097 97.8173 24.0654C97.8393 24.0179 97.8487 23.9482 97.8487 23.8564V23.3465C97.8487 23.2483 97.8361 23.1755 97.8142 23.1248C97.789 23.0741 97.7514 23.0393 97.698 23.0203C97.6446 23.0013 97.5693 22.9918 97.4689 22.9918H96.8567C96.7563 22.9918 96.6778 23.0013 96.6276 23.0235C96.5742 23.0456 96.5365 23.0805 96.5146 23.1311C96.4926 23.1818 96.48 23.2547 96.48 23.3528V23.8564ZM98.3258 23.9039C98.3258 24.0337 98.3133 24.1414 98.2913 24.2269C98.2693 24.3124 98.2285 24.3821 98.1751 24.4359C98.1218 24.4898 98.0464 24.5278 97.9554 24.5531C97.8612 24.5784 97.7482 24.5911 97.607 24.5911H96.7343C96.6025 24.5911 96.4894 24.5784 96.3953 24.5531C96.3011 24.5278 96.2258 24.4866 96.1693 24.4327C96.1096 24.3789 96.0688 24.3061 96.0406 24.2206C96.0123 24.1351 95.9998 24.0305 95.9998 23.907V23.299C95.9998 23.1596 96.0123 23.0456 96.0374 22.9538C96.0625 22.862 96.1033 22.7923 96.1598 22.7384C96.2163 22.6846 96.2917 22.6466 96.3827 22.6244C96.4738 22.6023 96.5899 22.5896 96.7312 22.5896H97.6038C97.7765 22.5896 97.9115 22.6118 98.0151 22.6498C98.1186 22.6909 98.194 22.7638 98.2442 22.8651C98.2944 22.9696 98.3195 23.1121 98.3195 23.2958V23.9039H98.3258Z"
                fill="#CD3433"/>
        <path
                d="M102.363 24.5879H101.886V22.9855H101.826L101.145 24.5879H100.47L99.7887 22.9855H99.726V24.5879H99.252V22.5864H100.134L100.793 24.1921H100.822L101.478 22.5864H102.363V24.5879Z"
                fill="#CD3433"/>
        <path d="M103.264 24.5879V22.5864H103.738H104.962H105.439V24.5879H104.965V22.9823H103.738V24.5879H103.264Z"
              fill="#CD3433"/>
        <path
                d="M107.194 23.7075H107.985L107.608 22.9633H107.586L107.194 23.7075ZM106.745 24.5879H106.192L107.244 22.5864H107.947L108.992 24.5879H108.434L108.179 24.0844H107.005L106.745 24.5879Z"
                fill="#CD3433"/>
        <path
                d="M109.711 24.5879V22.5864H110.185V23.3528H111.41V22.5864H111.887V24.5879H111.41V23.7519H110.185V24.5879H109.711Z"
                fill="#CD3433"/>
        <path
                d="M114.878 24.5879V22.9855H114.812L113.62 24.5879H112.803V22.5864H113.277V24.1921H113.343L114.555 22.5864H115.352V24.5879H114.878Z"
                fill="#CD3433"/>
        <path
                d="M118.181 22.0291C118.181 22.1336 118.162 22.2128 118.127 22.2698C118.093 22.3268 118.027 22.3711 117.93 22.3965C117.832 22.4218 117.688 22.4377 117.499 22.4377C117.311 22.4377 117.167 22.425 117.069 22.3965C116.972 22.3711 116.906 22.3268 116.872 22.2698C116.837 22.2128 116.818 22.1305 116.818 22.0291V22.0038H117.204V22.0323C117.204 22.0861 117.214 22.1241 117.233 22.1463C117.248 22.1716 117.277 22.1875 117.317 22.1938C117.355 22.2001 117.418 22.2033 117.499 22.2033C117.581 22.2033 117.644 22.2001 117.682 22.1938C117.719 22.1875 117.747 22.1716 117.766 22.1463C117.785 22.121 117.791 22.083 117.791 22.0323V22.0038H118.178V22.0291H118.181ZM118.378 24.588V22.9824H118.312L117.12 24.588H116.303V22.5865H116.777V24.1921H116.843L118.052 22.5865H118.849V24.588H118.378V24.588Z"
                fill="#CD3433"/>
    </g>
    <defs>
        <clipPath id="clip0">
            <rect width="119" height="34" fill="white"/>
        </clipPath>
    </defs>
</svg>
