<svg width="353" height="100" viewBox="0 0 353 100" fill="none" xmlns="http://www.w3.org/2000/svg">
<path d="M298.964 53.7165C298.917 54.3663 299.066 55.0154 299.392 55.5794C300.099 56.5574 302.137 56.6226 303.197 56.6226H311.859C314.213 56.6226 315.786 56.1475 315.786 53.5768V52.813C314.502 53.1873 313.168 53.3602 311.832 53.3253H303.197C297.615 53.3253 294.824 51.3785 294.824 45.5011V38.7668H298.973V46.2929C298.932 46.9423 299.081 47.5897 299.401 48.1557C300.108 49.1338 302.146 49.199 303.207 49.199H311.869C314.223 49.199 315.795 48.7239 315.795 46.1531V38.7016H319.935V52.7943C319.935 58.5972 317.442 60.6744 311.841 60.6744H303.207C297.894 60.6744 295.121 58.9233 294.833 53.7165H298.964Z" fill="#787874"/>
<path d="M183.863 49.702C183.863 50.7731 183.798 52.813 182.821 53.5209C182.255 53.8404 181.608 53.9892 180.96 53.9494H172.614V43.0421H180.811C183.388 43.0421 183.863 44.6256 183.863 46.9821V49.702ZM168.455 53.9587H160.147C159.498 53.9991 158.852 53.8502 158.286 53.5302C157.299 52.8223 157.244 50.7359 157.244 49.7113V46.9821C157.244 44.6256 157.718 43.0421 160.295 43.0421H168.492L168.455 53.9587ZM185.026 39.9218C183.492 39.1459 181.782 38.7862 180.067 38.8786H160.993C157.96 38.8786 155.96 39.5678 154.722 41.0116C153.485 42.4553 153.103 44.3089 153.103 47.0008V49.6926C153.103 52.4311 153.569 54.4896 154.722 55.8868C155.876 57.2839 157.914 58.1036 160.937 58.1036H168.446V60.8979H172.605V58.1036H180.113C181.816 58.1943 183.512 57.8175 185.016 57.0138C187.138 55.7284 187.947 53.288 187.947 49.6833V47.0101C187.947 43.4426 187.11 41.142 185.016 39.9218" fill="#787874"/>
<path d="M236.422 38.7668H240.581V60.6744H236.422V51.7977H220.8V60.6744H216.641V38.7668H220.8V47.6341H236.422V38.7668Z" fill="#787874"/>
<path d="M146.897 38.9624H151.056V60.8793H146.897V52.0026H131.276V60.8793H127.117V38.9624H131.276V47.8391H146.897V38.9624Z" fill="#787874"/>
<path d="M120.706 44.9237V60.8793H124.865V38.9624H120.371L105.085 56.7623V38.9624H100.926V60.8793H107.029L120.706 44.9237Z" fill="#787874"/>
<path d="M262.445 44.7187V60.6744H266.604V38.7668H262.101L246.824 56.5667V38.7668H242.665V60.6744H248.759L262.445 44.7187Z" fill="#787874"/>
<path d="M210.407 44.7187V60.6744H214.566V38.7668H210.063L194.786 56.5667V38.7668H190.627V60.6744H196.721L210.407 44.7187Z" fill="#787874"/>
<path d="M283.361 42.8745V60.6744H279.202V42.8745H269.6V38.7668H293.019V42.8745H283.361Z" fill="#787874"/>
<path d="M346.778 38.7668L337.399 54.6386L327.974 38.7668H321.927V60.6744H326.086V43.3029L336.255 60.6744H338.516L348.667 43.3495V60.6744H352.826V38.7668H346.778Z" fill="#787874"/>
<path d="M49.9672 20.6781C57.7221 20.683 65.1577 23.7706 70.6395 29.262C76.1213 34.7534 79.2007 42.1992 79.2007 49.9628C79.2007 50.8011 79.2007 51.6394 79.0984 52.459H72.6878C73.2768 47.2007 72.0252 41.9006 69.1466 37.4629C66.268 33.0252 61.9407 29.7247 56.9027 28.1245C51.8648 26.5243 46.4283 26.7235 41.5207 28.688C36.613 30.6525 32.5382 34.2607 29.9912 38.8972H68.2963C69.6066 41.103 70.5228 43.5206 71.0038 46.0414H20.9848C21.9346 39.0196 25.3944 32.5804 30.7234 27.9169C36.0523 23.2534 42.8892 20.6816 49.9672 20.6781ZM49.9672 72.8391C53.765 72.8394 57.5029 71.8906 60.8417 70.0786C64.1806 68.2666 67.0147 65.6489 69.0871 62.4627H76.4095C73.7191 68.1797 69.2536 72.872 63.6798 75.8389C58.106 78.8058 51.7231 79.8879 45.4844 78.9238C39.2456 77.9597 33.4858 75.0011 29.0651 70.4898C24.6444 65.9784 21.8001 60.1565 20.9569 53.8935H91.4914V46.0414H80.3916C80.0875 43.5944 79.4812 41.1947 78.5866 38.8972H98.6928V38.5898C98.0217 35.7606 97.1033 32.9959 95.9481 30.3279C91.4216 19.7391 83.3823 11.0395 73.1888 5.69927C62.9953 0.359028 51.2727 -1.29436 40.0022 1.01852C28.7317 3.3314 18.6044 9.46872 11.3317 18.3933C4.0591 27.3178 0.0871582 38.4823 0.0871582 50C0.0871582 61.5177 4.0591 72.6822 11.3317 81.6067C18.6044 90.5313 28.7317 96.6686 40.0022 98.9815C51.2727 101.294 62.9953 99.641 73.1888 94.3007C83.3823 88.9605 91.4216 80.2609 95.9481 69.6721C97.0938 67.0032 98.0029 64.2386 98.6649 61.4102V61.0283H29.9912C31.9647 64.6014 34.8586 67.5797 38.3717 69.6536C41.8848 71.7274 45.8888 72.821 49.9672 72.8204" fill="#EE3130"/>
<path d="M222.103 66.4307V67.6043H218.474V72.3174H217.069V66.4307H222.103Z" fill="#EE3130"/>
<path d="M226.122 69.4113H228.467C228.654 69.42 228.841 69.3882 229.016 69.3182C229.142 69.2607 229.241 69.1575 229.295 69.0295C229.356 68.8625 229.384 68.6855 229.378 68.5078C229.399 68.2648 229.33 68.0226 229.183 67.8279C229.085 67.7445 228.971 67.6824 228.847 67.6456C228.724 67.6087 228.594 67.5978 228.467 67.6137H226.122V69.4113ZM224.717 72.3268V66.4307H228.727C229.041 66.4255 229.354 66.4631 229.658 66.5425C229.895 66.6061 230.112 66.7278 230.29 66.8964C230.463 67.0735 230.588 67.2914 230.653 67.5298C230.737 67.8332 230.777 68.1467 230.774 68.4613C230.787 68.8723 230.714 69.2816 230.56 69.6628C230.43 69.9605 230.195 70.1994 229.9 70.3335C229.529 70.4885 229.129 70.5616 228.727 70.5477H226.113V72.2895L224.717 72.3268Z" fill="#EE3130"/>
<path d="M238.301 66.4307H239.967L237.231 70.8551C237.008 71.209 236.822 71.4698 236.682 71.6561C236.562 71.817 236.418 71.9584 236.254 72.0753C236.114 72.1715 235.956 72.2381 235.789 72.2709C235.561 72.3065 235.331 72.322 235.101 72.3174H234.58V71.209H234.859C235.398 71.209 235.668 71.091 235.668 70.8551C235.659 70.7575 235.623 70.6642 235.566 70.585L232.849 66.4307H234.514L236.44 69.7467L238.301 66.4307Z" fill="#EE3130"/>
<path d="M242.386 72.3174V66.4307H243.791H247.419H248.833V72.3174H247.428V67.6043H243.791V72.3174H242.386Z" fill="#EE3130"/>
<path d="M251.439 72.3174V66.4307H252.843H256.472H257.886V72.3174H256.481V67.6043H252.843V72.3174H251.439Z" fill="#EE3130"/>
<path d="M263.078 69.728H265.423L264.353 67.5298H264.288L263.078 69.728ZM261.748 72.3268H260.101L263.218 66.44H265.283L268.372 72.3268H266.716L265.999 70.7899H262.492L261.748 72.3268Z" fill="#EE3130"/>
<path d="M275.294 72.3174V66.4307H276.69V68.6289H277.527L280.095 66.4307H282.198L278.737 69.1878L282.338 72.3174H280.272L277.546 69.8025H276.69V72.3174H275.294Z" fill="#EE3130"/>
<path d="M286.078 70.1658C286.071 70.3725 286.106 70.5784 286.18 70.7713C286.212 70.8414 286.259 70.9041 286.316 70.9554C286.374 71.0067 286.442 71.0455 286.515 71.0693C286.732 71.1347 286.959 71.163 287.185 71.1531H289.046C289.278 71.1624 289.511 71.1341 289.734 71.0693C289.804 71.0464 289.869 71.0087 289.923 70.959C289.978 70.9092 290.021 70.8484 290.051 70.7806C290.121 70.5836 290.153 70.3748 290.144 70.1658V68.6569C290.152 68.4341 290.114 68.212 290.032 68.0049C289.998 67.933 289.951 67.8687 289.891 67.8158C289.832 67.763 289.763 67.7227 289.688 67.6975C289.468 67.6316 289.238 67.6032 289.009 67.6136H287.148C286.918 67.6053 286.688 67.6369 286.469 67.7068C286.394 67.7337 286.326 67.7757 286.268 67.8302C286.211 67.8847 286.165 67.9505 286.134 68.0235C286.056 68.2319 286.018 68.4531 286.022 68.6755L286.078 70.1658ZM291.549 70.3055C291.555 70.6191 291.52 70.9322 291.446 71.237C291.389 71.4691 291.27 71.6815 291.102 71.8517C290.919 72.0215 290.694 72.1403 290.451 72.1964C290.113 72.2774 289.766 72.3149 289.418 72.3081H286.831C286.493 72.3159 286.155 72.2783 285.827 72.1964C285.578 72.1355 285.347 72.0139 285.157 71.8424C284.976 71.672 284.845 71.4566 284.775 71.2183C284.687 70.916 284.646 70.6018 284.654 70.2869V68.5171C284.646 68.1747 284.687 67.8329 284.775 67.5019C284.836 67.2616 284.962 67.0426 285.138 66.8685C285.326 66.7018 285.553 66.5863 285.799 66.5332C286.138 66.4577 286.484 66.4233 286.831 66.4307H289.418C289.832 66.4155 290.245 66.4754 290.637 66.6077C290.936 66.7243 291.179 66.9509 291.316 67.2411C291.483 67.6416 291.559 68.0742 291.539 68.5078L291.549 70.3055Z" fill="#EE3130"/>
<path d="M303.514 72.3174H302.099V67.6043H301.923L299.904 72.3174H297.903L295.884 67.6043H295.698V72.3174H294.293V66.4307H296.908L298.862 71.1531H298.945L300.89 66.4307H303.514V72.3174Z" fill="#EE3130"/>
<path d="M306.184 72.3174V66.4307H307.589H311.218H312.632V72.3174H311.227V67.6043H307.589V72.3174H306.184Z" fill="#EE3130"/>
<path d="M317.833 69.728H320.177L319.061 67.5391H318.996L317.833 69.728ZM316.456 72.3174H314.818L317.935 66.4307H320.019L323.117 72.3174H321.461L320.745 70.7899H317.265L316.456 72.3174Z" fill="#EE3130"/>
<path d="M325.295 72.3174V66.4307H326.7V68.6848H330.328V66.4307H331.742V72.3174H330.328V69.8584H326.7V72.3174H325.295Z" fill="#EE3130"/>
<path d="M340.609 72.3174V67.6043H340.414L336.878 72.3174H334.459V66.4307H335.864V71.1531H336.06L339.651 66.4307H342.014V72.3174H340.609Z" fill="#EE3130"/>
<path d="M350.397 64.7914C350.411 65.0404 350.356 65.2886 350.239 65.5086C350.099 65.7038 349.889 65.8373 349.653 65.8812C348.813 66.0389 347.952 66.0389 347.113 65.8812C346.877 65.8373 346.667 65.7038 346.527 65.5086C346.409 65.2886 346.354 65.0404 346.368 64.7914V64.7169H347.513V64.8007C347.505 64.9185 347.534 65.0359 347.597 65.136C347.627 65.1748 347.665 65.2071 347.708 65.2311C347.751 65.2551 347.799 65.2703 347.848 65.2757C348.206 65.3176 348.569 65.3176 348.927 65.2757C349.026 65.2637 349.116 65.2136 349.178 65.136C349.237 65.0346 349.263 64.9175 349.253 64.8007V64.7169H350.397V64.7914ZM350.983 72.3175V67.6043H350.788L347.252 72.3175H344.833V66.4307H346.229V71.1531H346.424L350.006 66.4307H352.37V72.3175H350.983Z" fill="#EE3130"/>
</svg>
