<svg width="24" height="24" viewBox="0 0 24 24" fill="none" xmlns="http://www.w3.org/2000/svg">
    <g transform="translate(0.5,0.5)">
        <path d="M17.9958 9.93269V8.2527C18.0165 6.66212 17.4231 5.12479 16.3391 3.96065C15.2551 2.79651 13.7639 2.09523 12.1758 2.0027C11.3729 1.9786 10.5733 2.11597 9.82442 2.40669C9.07556 2.69741 8.39272 3.13558 7.81636 3.69514C7.24001 4.25471 6.78186 4.92432 6.46913 5.66426C6.15641 6.4042 5.99548 7.19939 5.99584 8.0027V9.93269C5.99694 12.5924 5.27448 15.2022 3.90584 17.4827C3.81372 17.634 3.76346 17.8071 3.76018 17.9842C3.75691 18.1613 3.80073 18.3362 3.88719 18.4908C3.97366 18.6454 4.09965 18.7743 4.25228 18.8642C4.4049 18.9542 4.57869 19.002 4.75585 19.0027H19.2258C19.4039 19.0037 19.5789 18.9572 19.7329 18.868C19.887 18.7788 20.0144 18.6501 20.102 18.4951C20.1897 18.3402 20.2344 18.1647 20.2316 17.9867C20.2287 17.8087 20.1784 17.6347 20.0858 17.4827C18.7172 15.2022 17.9947 12.5924 17.9958 9.93269Z" stroke="currentColor" stroke-linecap="round" stroke-linejoin="round"/>
        <path d="M10.7458 21.0027C10.9217 21.3058 11.174 21.5574 11.4776 21.7322C11.7812 21.9071 12.1255 21.9991 12.4759 21.9991C12.8262 21.9991 13.1705 21.9071 13.4741 21.7322C13.7777 21.5574 14.0301 21.3058 14.2059 21.0027" stroke="currentColor" stroke-linecap="round" stroke-linejoin="round"/>
    </g>
</svg>
