<svg width="20" height="20" viewBox="0 0 20 20" fill="none" xmlns="http://www.w3.org/2000/svg">
  <path
    d="M14.1703 4.16675C14.1687 4.16675 14.1678 4.16675 14.167 4.16675H14.1662H7.50033C5.96866 4.16675 4.51199 4.78091 3.39699 5.89675C2.28116 7.01258 1.66699 8.46925 1.66699 10.0001C1.66699 11.5317 2.28116 12.9884 3.39699 14.1034C4.51199 15.2192 5.96866 15.8334 7.50033 15.8334H14.167V14.1667H7.50033C6.41449 14.1667 5.37533 13.7259 4.57533 12.9251C3.77449 12.1251 3.33366 11.0859 3.33366 10.0001C3.33366 8.91508 3.77449 7.87592 4.57533 7.07508C5.37533 6.27425 6.41449 5.83341 7.50033 5.83341H14.167V5.00008L14.1678 5.83341C14.1687 5.83341 14.1695 5.83341 14.1703 5.83341C14.8287 5.83341 15.4528 6.09508 15.9278 6.57175C16.4037 7.04758 16.6662 7.67341 16.667 8.33508C16.6678 8.99258 16.4062 9.61758 15.9303 10.0934C15.4528 10.5701 14.8262 10.8326 14.167 10.8334H7.50033C7.28699 10.8334 7.07949 10.7442 6.91866 10.5834C6.75616 10.4209 6.66699 10.2134 6.66699 10.0001C6.66699 9.79008 6.75866 9.57758 6.91783 9.41842C7.07949 9.25592 7.28699 9.16675 7.50033 9.16675H14.167V7.50008H7.50033C6.84199 7.50008 6.21616 7.76258 5.73866 8.24092C5.26199 8.71758 5.00033 9.34258 5.00033 10.0001C5.00033 10.6576 5.26199 11.2834 5.74033 11.7617C6.21699 12.2384 6.84283 12.5001 7.50033 12.5001H14.1678C15.2712 12.4992 16.3153 12.0642 17.1078 11.2726C17.9003 10.4809 18.3353 9.43591 18.3337 8.33258C18.3328 7.22758 17.897 6.18342 17.107 5.39341C16.317 4.60175 15.2737 4.16675 14.1703 4.16675Z"
    fill="currentColor" />
</svg>
