<svg width="14" height="13" viewBox="0 0 14 13" fill="none" xmlns="http://www.w3.org/2000/svg">
  <path
    d="M12.3333 2.99967H10.3333V1.66634C10.3333 0.931008 9.73525 0.333008 8.99992 0.333008H4.99992C4.26459 0.333008 3.66659 0.931008 3.66659 1.66634V2.99967H1.66659C0.931252 2.99967 0.333252 3.59767 0.333252 4.33301V6.33301H13.6666V4.33301C13.6666 3.59767 13.0686 2.99967 12.3333 2.99967ZM4.99992 1.66634H8.99992V2.99967H4.99992V1.66634ZM8.33325 8.33301H5.66659V6.99967H0.333252V11.6663C0.333252 12.4017 0.931252 12.9997 1.66659 12.9997H12.3333C13.0686 12.9997 13.6666 12.4017 13.6666 11.6663V6.99967H8.33325V8.33301Z"
    fill="currentColor"/>
</svg>
