<svg width="27" height="27" viewBox="0 0 27 27" fill="none" xmlns="http://www.w3.org/2000/svg">
    <rect x="2" y="3" width="5" height="5" fill="currentColor"/>
    <rect x="2" y="11" width="5" height="5" fill="currentColor"/>
    <rect x="3.25" y="20.25" width="2.5" height="2.5" stroke="currentColor" stroke-width="2.5"/>
    <rect x="11.25" y="20.25" width="2.5" height="2.5" stroke="currentColor" stroke-width="2.5"/>
    <mask id="path-5-inside-1" fill="white">
        <path d="M10 12.5C11.0002 14.4998 13.5001 15.5 15 15.5C15 16 15 16 15 16H10C10 16 10 14.5002 10 12.5Z"/>
    </mask>
    <path d="M10 12.5L12.236 11.3817L7.50005 12.4999L10 12.5ZM15 16V18.5H17.5V16H15ZM10 16L7.50005 16.0001L7.50012 18.5H10V16ZM15 15.5H17.5V13H15V15.5ZM15 13.5H10V18.5H15V13.5ZM12.5 15.5C12.5 15.501 12.5 15.502 12.5 15.5029C12.5 15.5039 12.5 15.5049 12.5 15.5058C12.5 15.5068 12.5 15.5078 12.5 15.5087C12.5 15.5097 12.5 15.5107 12.5 15.5116C12.5 15.5126 12.5 15.5135 12.5 15.5145C12.5 15.5155 12.5 15.5164 12.5 15.5174C12.5 15.5183 12.5 15.5193 12.5 15.5202C12.5 15.5212 12.5 15.5221 12.5 15.5231C12.5 15.524 12.5 15.525 12.5 15.5259C12.5 15.5268 12.5 15.5278 12.5 15.5287C12.5 15.5297 12.5 15.5306 12.5 15.5315C12.5 15.5325 12.5 15.5334 12.5 15.5343C12.5 15.5353 12.5 15.5362 12.5 15.5371C12.5 15.5381 12.5 15.539 12.5 15.5399C12.5 15.5408 12.5 15.5418 12.5 15.5427C12.5 15.5436 12.5 15.5445 12.5 15.5454C12.5 15.5463 12.5 15.5473 12.5 15.5482C12.5 15.5491 12.5 15.55 12.5 15.5509C12.5 15.5518 12.5 15.5527 12.5 15.5536C12.5 15.5545 12.5 15.5554 12.5 15.5563C12.5 15.5572 12.5 15.5581 12.5 15.559C12.5 15.5599 12.5 15.5608 12.5 15.5617C12.5 15.5626 12.5 15.5635 12.5 15.5644C12.5 15.5653 12.5 15.5662 12.5 15.5671C12.5 15.568 12.5 15.5688 12.5 15.5697C12.5 15.5706 12.5 15.5715 12.5 15.5724C12.5 15.5732 12.5 15.5741 12.5 15.575C12.5 15.5759 12.5 15.5768 12.5 15.5776C12.5 15.5785 12.5 15.5794 12.5 15.5802C12.5 15.5811 12.5 15.582 12.5 15.5828C12.5 15.5837 12.5 15.5846 12.5 15.5854C12.5 15.5863 12.5 15.5872 12.5 15.588C12.5 15.5889 12.5 15.5897 12.5 15.5906C12.5 15.5914 12.5 15.5923 12.5 15.5931C12.5 15.594 12.5 15.5948 12.5 15.5957C12.5 15.5965 12.5 15.5974 12.5 15.5982C12.5 15.5991 12.5 15.5999 12.5 15.6008C12.5 15.6016 12.5 15.6024 12.5 15.6033C12.5 15.6041 12.5 15.6049 12.5 15.6058C12.5 15.6066 12.5 15.6074 12.5 15.6083C12.5 15.6091 12.5 15.6099 12.5 15.6108C12.5 15.6116 12.5 15.6124 12.5 15.6132C12.5 15.6141 12.5 15.6149 12.5 15.6157C12.5 15.6165 12.5 15.6173 12.5 15.6181C12.5 15.619 12.5 15.6198 12.5 15.6206C12.5 15.6214 12.5 15.6222 12.5 15.623C12.5 15.6238 12.5 15.6246 12.5 15.6254C12.5 15.6262 12.5 15.6271 12.5 15.6279C12.5 15.6287 12.5 15.6295 12.5 15.6303C12.5 15.6311 12.5 15.6319 12.5 15.6326C12.5 15.6334 12.5 15.6342 12.5 15.635C12.5 15.6358 12.5 15.6366 12.5 15.6374C12.5 15.6382 12.5 15.639 12.5 15.6398C12.5 15.6405 12.5 15.6413 12.5 15.6421C12.5 15.6429 12.5 15.6437 12.5 15.6444C12.5 15.6452 12.5 15.646 12.5 15.6468C12.5 15.6475 12.5 15.6483 12.5 15.6491C12.5 15.6499 12.5 15.6506 12.5 15.6514C12.5 15.6522 12.5 15.6529 12.5 15.6537C12.5 15.6545 12.5 15.6552 12.5 15.656C12.5 15.6567 12.5 15.6575 12.5 15.6583C12.5 15.659 12.5 15.6598 12.5 15.6605C12.5 15.6613 12.5 15.662 12.5 15.6628C12.5 15.6635 12.5 15.6643 12.5 15.665C12.5 15.6658 12.5 15.6665 12.5 15.6673C12.5 15.668 12.5 15.6688 12.5 15.6695C12.5 15.6702 12.5 15.671 12.5 15.6717C12.5 15.6725 12.5 15.6732 12.5 15.6739C12.5 15.6747 12.5 15.6754 12.5 15.6761C12.5 15.6769 12.5 15.6776 12.5 15.6783C12.5 15.679 12.5 15.6798 12.5 15.6805C12.5 15.6812 12.5 15.6819 12.5 15.6827C12.5 15.6834 12.5 15.6841 12.5 15.6848C12.5 15.6855 12.5 15.6863 12.5 15.687C12.5 15.6877 12.5 15.6884 12.5 15.6891C12.5 15.6898 12.5 15.6905 12.5 15.6912C12.5 15.6919 12.5 15.6927 12.5 15.6934C12.5 15.6941 12.5 15.6948 12.5 15.6955C12.5 15.6962 12.5 15.6969 12.5 15.6976C12.5 15.6983 12.5 15.699 12.5 15.6997C12.5 15.7004 12.5 15.7011 12.5 15.7017C12.5 15.7024 12.5 15.7031 12.5 15.7038C12.5 15.7045 12.5 15.7052 12.5 15.7059C12.5 15.7066 12.5 15.7072 12.5 15.7079C12.5 15.7086 12.5 15.7093 12.5 15.71C12.5 15.7106 12.5 15.7113 12.5 15.712C12.5 15.7127 12.5 15.7134 12.5 15.714C12.5 15.7147 12.5 15.7154 12.5 15.716C12.5 15.7167 12.5 15.7174 12.5 15.718C12.5 15.7187 12.5 15.7194 12.5 15.72C12.5 15.7207 12.5 15.7214 12.5 15.722C12.5 15.7227 12.5 15.7233 12.5 15.724C12.5 15.7247 12.5 15.7253 12.5 15.726C12.5 15.7266 12.5 15.7273 12.5 15.7279C12.5 15.7286 12.5 15.7292 12.5 15.7299C12.5 15.7305 12.5 15.7312 12.5 15.7318C12.5 15.7325 12.5 15.7331 12.5 15.7337C12.5 15.7344 12.5 15.735 12.5 15.7357C12.5 15.7363 12.5 15.7369 12.5 15.7376C12.5 15.7382 12.5 15.7388 12.5 15.7395C12.5 15.7401 12.5 15.7407 12.5 15.7414C12.5 15.742 12.5 15.7426 12.5 15.7432C12.5 15.7439 12.5 15.7445 12.5 15.7451C12.5 15.7457 12.5 15.7464 12.5 15.747C12.5 15.7476 12.5 15.7482 12.5 15.7488C12.5 15.7495 12.5 15.7501 12.5 15.7507C12.5 15.7513 12.5 15.7519 12.5 15.7525C12.5 15.7531 12.5 15.7537 12.5 15.7544C12.5 15.755 12.5 15.7556 12.5 15.7562C12.5 15.7568 12.5 15.7574 12.5 15.758C12.5 15.7586 12.5 15.7592 12.5 15.7598C12.5 15.7604 12.5 15.761 12.5 15.7616C12.5 15.7622 12.5 15.7628 12.5 15.7634C12.5 15.764 12.5 15.7645 12.5 15.7651C12.5 15.7657 12.5 15.7663 12.5 15.7669C12.5 15.7675 12.5 15.7681 12.5 15.7687C12.5 15.7692 12.5 15.7698 12.5 15.7704C12.5 15.771 12.5 15.7716 12.5 15.7722C12.5 15.7727 12.5 15.7733 12.5 15.7739C12.5 15.7745 12.5 15.775 12.5 15.7756C12.5 15.7762 12.5 15.7767 12.5 15.7773C12.5 15.7779 12.5 15.7785 12.5 15.779C12.5 15.7796 12.5 15.7802 12.5 15.7807C12.5 15.7813 12.5 15.7818 12.5 15.7824C12.5 15.783 12.5 15.7835 12.5 15.7841C12.5 15.7846 12.5 15.7852 12.5 15.7857C12.5 15.7863 12.5 15.7869 12.5 15.7874C12.5 15.788 12.5 15.7885 12.5 15.7891C12.5 15.7896 12.5 15.7902 12.5 15.7907C12.5 15.7913 12.5 15.7918 12.5 15.7923C12.5 15.7929 12.5 15.7934 12.5 15.794C12.5 15.7945 12.5 15.795 12.5 15.7956C12.5 15.7961 12.5 15.7967 12.5 15.7972C12.5 15.7977 12.5 15.7983 12.5 15.7988C12.5 15.7993 12.5 15.7999 12.5 15.8004C12.5 15.8009 12.5 15.8014 12.5 15.802C12.5 15.8025 12.5 15.803 12.5 15.8035C12.5 15.8041 12.5 15.8046 12.5 15.8051C12.5 15.8056 12.5 15.8062 12.5 15.8067C12.5 15.8072 12.5 15.8077 12.5 15.8082C12.5 15.8087 12.5 15.8093 12.5 15.8098C12.5 15.8103 12.5 15.8108 12.5 15.8113C12.5 15.8118 12.5 15.8123 12.5 15.8128C12.5 15.8133 12.5 15.8138 12.5 15.8143C12.5 15.8149 12.5 15.8154 12.5 15.8159C12.5 15.8164 12.5 15.8169 12.5 15.8174C12.5 15.8179 12.5 15.8184 12.5 15.8189C12.5 15.8193 12.5 15.8198 12.5 15.8203C12.5 15.8208 12.5 15.8213 12.5 15.8218C12.5 15.8223 12.5 15.8228 12.5 15.8233C12.5 15.8238 12.5 15.8243 12.5 15.8247C12.5 15.8252 12.5 15.8257 12.5 15.8262C12.5 15.8267 12.5 15.8272 12.5 15.8276C12.5 15.8281 12.5 15.8286 12.5 15.8291C12.5 15.8296 12.5 15.83 12.5 15.8305C12.5 15.831 12.5 15.8315 12.5 15.8319C12.5 15.8324 12.5 15.8329 12.5 15.8333C12.5 15.8338 12.5 15.8343 12.5 15.8347C12.5 15.8352 12.5 15.8357 12.5 15.8361C12.5 15.8366 12.5 15.8371 12.5 15.8375C12.5 15.838 12.5 15.8384 12.5 15.8389C12.5 15.8394 12.5 15.8398 12.5 15.8403C12.5 15.8407 12.5 15.8412 12.5 15.8416C12.5 15.8421 12.5 15.8425 12.5 15.843C12.5 15.8435 12.5 15.8439 12.5 15.8444C12.5 15.8448 12.5 15.8452 12.5 15.8457C12.5 15.8461 12.5 15.8466 12.5 15.847C12.5 15.8475 12.5 15.8479 12.5 15.8484C12.5 15.8488 12.5 15.8492 12.5 15.8497C12.5 15.8501 12.5 15.8505 12.5 15.851C12.5 15.8514 12.5 15.8519 12.5 15.8523C12.5 15.8527 12.5 15.8532 12.5 15.8536C12.5 15.854 12.5 15.8544 12.5 15.8549C12.5 15.8553 12.5 15.8557 12.5 15.8562C12.5 15.8566 12.5 15.857 12.5 15.8574C12.5 15.8578 12.5 15.8583 12.5 15.8587C12.5 15.8591 12.5 15.8595 12.5 15.8599C12.5 15.8604 12.5 15.8608 12.5 15.8612C12.5 15.8616 12.5 15.862 12.5 15.8624C12.5 15.8629 12.5 15.8633 12.5 15.8637C12.5 15.8641 12.5 15.8645 12.5 15.8649C12.5 15.8653 12.5 15.8657 12.5 15.8661C12.5 15.8665 12.5 15.8669 12.5 15.8673C12.5 15.8677 12.5 15.8681 12.5 15.8685C12.5 15.8689 12.5 15.8693 12.5 15.8697C12.5 15.8701 12.5 15.8705 12.5 15.8709C12.5 15.8713 12.5 15.8717 12.5 15.8721C12.5 15.8725 12.5 15.8729 12.5 15.8733C12.5 15.8737 12.5 15.8741 12.5 15.8745C12.5 15.8749 12.5 15.8752 12.5 15.8756C12.5 15.876 12.5 15.8764 12.5 15.8768C12.5 15.8772 12.5 15.8775 12.5 15.8779C12.5 15.8783 12.5 15.8787 12.5 15.8791C12.5 15.8794 12.5 15.8798 12.5 15.8802C12.5 15.8806 12.5 15.881 12.5 15.8813C12.5 15.8817 12.5 15.8821 12.5 15.8825C12.5 15.8828 12.5 15.8832 12.5 15.8836C12.5 15.8839 12.5 15.8843 12.5 15.8847C12.5 15.885 12.5 15.8854 12.5 15.8858C12.5 15.8861 12.5 15.8865 12.5 15.8869C12.5 15.8872 12.5 15.8876 12.5 15.8879C12.5 15.8883 12.5 15.8887 12.5 15.889C12.5 15.8894 12.5 15.8897 12.5 15.8901C12.5 15.8904 12.5 15.8908 12.5 15.8912C12.5 15.8915 12.5 15.8919 12.5 15.8922C12.5 15.8926 12.5 15.8929 12.5 15.8933C12.5 15.8936 12.5 15.894 12.5 15.8943C12.5 15.8947 12.5 15.895 12.5 15.8953C12.5 15.8957 12.5 15.896 12.5 15.8964C12.5 15.8967 12.5 15.8971 12.5 15.8974C12.5 15.8977 12.5 15.8981 12.5 15.8984C12.5 15.8987 12.5 15.8991 12.5 15.8994C12.5 15.8998 12.5 15.9001 12.5 15.9004C12.5 15.9008 12.5 15.9011 12.5 15.9014C12.5 15.9017 12.5 15.9021 12.5 15.9024C12.5 15.9027 12.5 15.9031 12.5 15.9034C12.5 15.9037 12.5 15.904 12.5 15.9044C12.5 15.9047 12.5 15.905 12.5 15.9053C12.5 15.9057 12.5 15.906 12.5 15.9063C12.5 15.9066 12.5 15.9069 12.5 15.9073C12.5 15.9076 12.5 15.9079 12.5 15.9082C12.5 15.9085 12.5 15.9088 12.5 15.9091C12.5 15.9095 12.5 15.9098 12.5 15.9101C12.5 15.9104 12.5 15.9107 12.5 15.911C12.5 15.9113 12.5 15.9116 12.5 15.9119C12.5 15.9122 12.5 15.9125 12.5 15.9129C12.5 15.9132 12.5 15.9135 12.5 15.9138C12.5 15.9141 12.5 15.9144 12.5 15.9147C12.5 15.915 12.5 15.9153 12.5 15.9156C12.5 15.9159 12.5 15.9162 12.5 15.9165C12.5 15.9168 12.5 15.917 12.5 15.9173C12.5 15.9176 12.5 15.9179 12.5 15.9182C12.5 15.9185 12.5 15.9188 12.5 15.9191C12.5 15.9194 12.5 15.9197 12.5 15.92C12.5 15.9203 12.5 15.9205 12.5 15.9208C12.5 15.9211 12.5 15.9214 12.5 15.9217C12.5 15.922 12.5 15.9222 12.5 15.9225C12.5 15.9228 12.5 15.9231 12.5 15.9234C12.5 15.9236 12.5 15.9239 12.5 15.9242C12.5 15.9245 12.5 15.9248 12.5 15.925C12.5 15.9253 12.5 15.9256 12.5 15.9259C12.5 15.9261 12.5 15.9264 12.5 15.9267C12.5 15.9269 12.5 15.9272 12.5 15.9275C12.5 15.9278 12.5 15.928 12.5 15.9283C12.5 15.9286 12.5 15.9288 12.5 15.9291C12.5 15.9294 12.5 15.9296 12.5 15.9299C12.5 15.9301 12.5 15.9304 12.5 15.9307C12.5 15.9309 12.5 15.9312 12.5 15.9315C12.5 15.9317 12.5 15.932 12.5 15.9322C12.5 15.9325 12.5 15.9327 12.5 15.933C12.5 15.9333 12.5 15.9335 12.5 15.9338C12.5 15.934 12.5 15.9343 12.5 15.9345C12.5 15.9348 12.5 15.935 12.5 15.9353C12.5 15.9355 12.5 15.9358 12.5 15.936C12.5 15.9363 12.5 15.9365 12.5 15.9368C12.5 15.937 12.5 15.9373 12.5 15.9375C12.5 15.9377 12.5 15.938 12.5 15.9382C12.5 15.9385 12.5 15.9387 12.5 15.939C12.5 15.9392 12.5 15.9394 12.5 15.9397C12.5 15.9399 12.5 15.9401 12.5 15.9404C12.5 15.9406 12.5 15.9409 12.5 15.9411C12.5 15.9413 12.5 15.9416 12.5 15.9418C12.5 15.942 12.5 15.9423 12.5 15.9425C12.5 15.9427 12.5 15.9429 12.5 15.9432C12.5 15.9434 12.5 15.9436 12.5 15.9439C12.5 15.9441 12.5 15.9443 12.5 15.9445C12.5 15.9448 12.5 15.945 12.5 15.9452C12.5 15.9454 12.5 15.9457 12.5 15.9459C12.5 15.9461 12.5 15.9463 12.5 15.9465C12.5 15.9468 12.5 15.947 12.5 15.9472C12.5 15.9474 12.5 15.9476 12.5 15.9479C12.5 15.9481 12.5 15.9483 12.5 15.9485C12.5 15.9487 12.5 15.9489 12.5 15.9491C12.5 15.9494 12.5 15.9496 12.5 15.9498C12.5 15.95 12.5 15.9502 12.5 15.9504C12.5 15.9506 12.5 15.9508 12.5 15.951C12.5 15.9512 12.5 15.9514 12.5 15.9517C12.5 15.9519 12.5 15.9521 12.5 15.9523C12.5 15.9525 12.5 15.9527 12.5 15.9529C12.5 15.9531 12.5 15.9533 12.5 15.9535C12.5 15.9537 12.5 15.9539 12.5 15.9541C12.5 15.9543 12.5 15.9545 12.5 15.9547C12.5 15.9549 12.5 15.9551 12.5 15.9553C12.5 15.9555 12.5 15.9557 12.5 15.9558C12.5 15.956 12.5 15.9562 12.5 15.9564C12.5 15.9566 12.5 15.9568 12.5 15.957C12.5 15.9572 12.5 15.9574 12.5 15.9576C12.5 15.9578 12.5 15.9579 12.5 15.9581C12.5 15.9583 12.5 15.9585 12.5 15.9587C12.5 15.9589 12.5 15.9591 12.5 15.9592C12.5 15.9594 12.5 15.9596 12.5 15.9598C12.5 15.96 12.5 15.9602 12.5 15.9603C12.5 15.9605 12.5 15.9607 12.5 15.9609C12.5 15.9611 12.5 15.9612 12.5 15.9614C12.5 15.9616 12.5 15.9618 12.5 15.9619C12.5 15.9621 12.5 15.9623 12.5 15.9625C12.5 15.9626 12.5 15.9628 12.5 15.963C12.5 15.9631 12.5 15.9633 12.5 15.9635C12.5 15.9637 12.5 15.9638 12.5 15.964C12.5 15.9642 12.5 15.9643 12.5 15.9645C12.5 15.9647 12.5 15.9648 12.5 15.965C12.5 15.9652 12.5 15.9653 12.5 15.9655C12.5 15.9657 12.5 15.9658 12.5 15.966C12.5 15.9662 12.5 15.9663 12.5 15.9665C12.5 15.9666 12.5 15.9668 12.5 15.967C12.5 15.9671 12.5 15.9673 12.5 15.9674C12.5 15.9676 12.5 15.9677 12.5 15.9679C12.5 15.9681 12.5 15.9682 12.5 15.9684C12.5 15.9685 12.5 15.9687 12.5 15.9688C12.5 15.969 12.5 15.9691 12.5 15.9693C12.5 15.9694 12.5 15.9696 12.5 15.9697C12.5 15.9699 12.5 15.97 12.5 15.9702C12.5 15.9703 12.5 15.9705 12.5 15.9706C12.5 15.9708 12.5 15.9709 12.5 15.9711C12.5 15.9712 12.5 15.9714 12.5 15.9715C12.5 15.9717 12.5 15.9718 12.5 15.972C12.5 15.9721 12.5 15.9722 12.5 15.9724C12.5 15.9725 12.5 15.9727 12.5 15.9728C12.5 15.9729 12.5 15.9731 12.5 15.9732C12.5 15.9734 12.5 15.9735 12.5 15.9736C12.5 15.9738 12.5 15.9739 12.5 15.974C12.5 15.9742 12.5 15.9743 12.5 15.9744C12.5 15.9746 12.5 15.9747 12.5 15.9748C12.5 15.975 12.5 15.9751 12.5 15.9752C12.5 15.9754 12.5 15.9755 12.5 15.9756C12.5 15.9758 12.5 15.9759 12.5 15.976C12.5 15.9762 12.5 15.9763 12.5 15.9764C12.5 15.9765 12.5 15.9767 12.5 15.9768C12.5 15.9769 12.5 15.977 12.5 15.9772C12.5 15.9773 12.5 15.9774 12.5 15.9775C12.5 15.9777 12.5 15.9778 12.5 15.9779C12.5 15.978 12.5 15.9782 12.5 15.9783C12.5 15.9784 12.5 15.9785 12.5 15.9786C12.5 15.9788 12.5 15.9789 12.5 15.979C12.5 15.9791 12.5 15.9792 12.5 15.9793C12.5 15.9795 12.5 15.9796 12.5 15.9797C12.5 15.9798 12.5 15.9799 12.5 15.98C12.5 15.9801 12.5 15.9803 12.5 15.9804C12.5 15.9805 12.5 15.9806 12.5 15.9807C12.5 15.9808 12.5 15.9809 12.5 15.981C12.5 15.9812 12.5 15.9813 12.5 15.9814C12.5 15.9815 12.5 15.9816 12.5 15.9817C12.5 15.9818 12.5 15.9819 12.5 15.982C12.5 15.9821 12.5 15.9822 12.5 15.9823C12.5 15.9824 12.5 15.9825 12.5 15.9826C12.5 15.9828 12.5 15.9829 12.5 15.983C12.5 15.9831 12.5 15.9832 12.5 15.9833C12.5 15.9834 12.5 15.9835 12.5 15.9836C12.5 15.9837 12.5 15.9838 12.5 15.9839C12.5 15.984 12.5 15.9841 12.5 15.9842C12.5 15.9843 12.5 15.9844 12.5 15.9845C12.5 15.9845 12.5 15.9846 12.5 15.9847C12.5 15.9848 12.5 15.9849 12.5 15.985C12.5 15.9851 12.5 15.9852 12.5 15.9853C12.5 15.9854 12.5 15.9855 12.5 15.9856C12.5 15.9857 12.5 15.9858 12.5 15.9859C12.5 15.9859 12.5 15.986 12.5 15.9861C12.5 15.9862 12.5 15.9863 12.5 15.9864C12.5 15.9865 12.5 15.9866 12.5 15.9867C12.5 15.9867 12.5 15.9868 12.5 15.9869C12.5 15.987 12.5 15.9871 12.5 15.9872C12.5 15.9873 12.5 15.9873 12.5 15.9874C12.5 15.9875 12.5 15.9876 12.5 15.9877C12.5 15.9878 12.5 15.9878 12.5 15.9879C12.5 15.988 12.5 15.9881 12.5 15.9882C12.5 15.9882 12.5 15.9883 12.5 15.9884C12.5 15.9885 12.5 15.9886 12.5 15.9886C12.5 15.9887 12.5 15.9888 12.5 15.9889C12.5 15.989 12.5 15.989 12.5 15.9891C12.5 15.9892 12.5 15.9893 12.5 15.9893C12.5 15.9894 12.5 15.9895 12.5 15.9896C12.5 15.9896 12.5 15.9897 12.5 15.9898C12.5 15.9899 12.5 15.9899 12.5 15.99C12.5 15.9901 12.5 15.9901 12.5 15.9902C12.5 15.9903 12.5 15.9904 12.5 15.9904C12.5 15.9905 12.5 15.9906 12.5 15.9906C12.5 15.9907 12.5 15.9908 12.5 15.9908C12.5 15.9909 12.5 15.991 12.5 15.991C12.5 15.9911 12.5 15.9912 12.5 15.9912C12.5 15.9913 12.5 15.9914 12.5 15.9914C12.5 15.9915 12.5 15.9916 12.5 15.9916C12.5 15.9917 12.5 15.9918 12.5 15.9918C12.5 15.9919 12.5 15.9919 12.5 15.992C12.5 15.9921 12.5 15.9921 12.5 15.9922C12.5 15.9922 12.5 15.9923 12.5 15.9924C12.5 15.9924 12.5 15.9925 12.5 15.9925C12.5 15.9926 12.5 15.9927 12.5 15.9927C12.5 15.9928 12.5 15.9928 12.5 15.9929C12.5 15.993 12.5 15.993 12.5 15.9931C12.5 15.9931 12.5 15.9932 12.5 15.9932C12.5 15.9933 12.5 15.9933 12.5 15.9934C12.5 15.9935 12.5 15.9935 12.5 15.9936C12.5 15.9936 12.5 15.9937 12.5 15.9937C12.5 15.9938 12.5 15.9938 12.5 15.9939C12.5 15.9939 12.5 15.994 12.5 15.994C12.5 15.9941 12.5 15.9941 12.5 15.9942C12.5 15.9942 12.5 15.9943 12.5 15.9943C12.5 15.9944 12.5 15.9944 12.5 15.9945C12.5 15.9945 12.5 15.9946 12.5 15.9946C12.5 15.9947 12.5 15.9947 12.5 15.9948C12.5 15.9948 12.5 15.9949 12.5 15.9949C12.5 15.995 12.5 15.995 12.5 15.995C12.5 15.9951 12.5 15.9951 12.5 15.9952C12.5 15.9952 12.5 15.9953 12.5 15.9953C12.5 15.9954 12.5 15.9954 12.5 15.9954C12.5 15.9955 12.5 15.9955 12.5 15.9956C12.5 15.9956 12.5 15.9956 12.5 15.9957C12.5 15.9957 12.5 15.9958 12.5 15.9958C12.5 15.9959 12.5 15.9959 12.5 15.9959C12.5 15.996 12.5 15.996 12.5 15.996C12.5 15.9961 12.5 15.9961 12.5 15.9962C12.5 15.9962 12.5 15.9962 12.5 15.9963C12.5 15.9963 12.5 15.9963 12.5 15.9964C12.5 15.9964 12.5 15.9965 12.5 15.9965C12.5 15.9965 12.5 15.9966 12.5 15.9966C12.5 15.9966 12.5 15.9967 12.5 15.9967C12.5 15.9967 12.5 15.9968 12.5 15.9968C12.5 15.9968 12.5 15.9969 12.5 15.9969C12.5 15.9969 12.5 15.997 12.5 15.997C12.5 15.997 12.5 15.9971 12.5 15.9971C12.5 15.9971 12.5 15.9972 12.5 15.9972C12.5 15.9972 12.5 15.9973 12.5 15.9973C12.5 15.9973 12.5 15.9973 12.5 15.9974C12.5 15.9974 12.5 15.9974 12.5 15.9975C12.5 15.9975 12.5 15.9975 12.5 15.9975C12.5 15.9976 12.5 15.9976 12.5 15.9976C12.5 15.9977 12.5 15.9977 12.5 15.9977C12.5 15.9977 12.5 15.9978 12.5 15.9978C12.5 15.9978 12.5 15.9978 12.5 15.9979C12.5 15.9979 12.5 15.9979 12.5 15.9979C12.5 15.998 12.5 15.998 12.5 15.998C12.5 15.998 12.5 15.9981 12.5 15.9981C12.5 15.9981 12.5 15.9981 12.5 15.9982C12.5 15.9982 12.5 15.9982 12.5 15.9982C12.5 15.9983 12.5 15.9983 12.5 15.9983C12.5 15.9983 12.5 15.9983 12.5 15.9984C12.5 15.9984 12.5 15.9984 12.5 15.9984C12.5 15.9984 12.5 15.9985 12.5 15.9985C12.5 15.9985 12.5 15.9985 12.5 15.9986C12.5 15.9986 12.5 15.9986 12.5 15.9986C12.5 15.9986 12.5 15.9986 12.5 15.9987C12.5 15.9987 12.5 15.9987 12.5 15.9987C12.5 15.9987 12.5 15.9988 12.5 15.9988C12.5 15.9988 12.5 15.9988 12.5 15.9988C12.5 15.9988 12.5 15.9989 12.5 15.9989C12.5 15.9989 12.5 15.9989 12.5 15.9989C12.5 15.9989 12.5 15.999 12.5 15.999C12.5 15.999 12.5 15.999 12.5 15.999C12.5 15.999 12.5 15.9991 12.5 15.9991C12.5 15.9991 12.5 15.9991 12.5 15.9991C12.5 15.9991 12.5 15.9991 12.5 15.9992C12.5 15.9992 12.5 15.9992 12.5 15.9992C12.5 15.9992 12.5 15.9992 12.5 15.9992C12.5 15.9992 12.5 15.9993 12.5 15.9993C12.5 15.9993 12.5 15.9993 12.5 15.9993C12.5 15.9993 12.5 15.9993 12.5 15.9993C12.5 15.9994 12.5 15.9994 12.5 15.9994C12.5 15.9994 12.5 15.9994 12.5 15.9994C12.5 15.9994 12.5 15.9994 12.5 15.9994C12.5 15.9995 12.5 15.9995 12.5 15.9995C12.5 15.9995 12.5 15.9995 12.5 15.9995C12.5 15.9995 12.5 15.9995 12.5 15.9995C12.5 15.9995 12.5 15.9996 12.5 15.9996C12.5 15.9996 12.5 15.9996 12.5 15.9996C12.5 15.9996 12.5 15.9996 12.5 15.9996C12.5 15.9996 12.5 15.9996 12.5 15.9996C12.5 15.9996 12.5 15.9997 12.5 15.9997C12.5 15.9997 12.5 15.9997 12.5 15.9997C12.5 15.9997 12.5 15.9997 12.5 15.9997C12.5 15.9997 12.5 15.9997 12.5 15.9997C12.5 15.9997 12.5 15.9997 12.5 15.9997C12.5 15.9997 12.5 15.9998 12.5 15.9998C12.5 15.9998 12.5 15.9998 12.5 15.9998C12.5 15.9998 12.5 15.9998 12.5 15.9998C12.5 15.9998 12.5 15.9998 12.5 15.9998C12.5 15.9998 12.5 15.9998 12.5 15.9998C12.5 15.9998 12.5 15.9998 12.5 15.9998C12.5 15.9998 12.5 15.9998 12.5 15.9999C12.5 15.9999 12.5 15.9999 12.5 15.9999C12.5 15.9999 12.5 15.9999 12.5 15.9999C12.5 15.9999 12.5 15.9999 12.5 15.9999C12.5 15.9999 12.5 15.9999 12.5 15.9999C12.5 15.9999 12.5 15.9999 12.5 15.9999C12.5 15.9999 12.5 15.9999 12.5 15.9999C12.5 15.9999 12.5 15.9999 12.5 15.9999C12.5 15.9999 12.5 15.9999 12.5 15.9999C12.5 15.9999 12.5 15.9999 12.5 15.9999C12.5 15.9999 12.5 15.9999 12.5 15.9999C12.5 16 12.5 16 12.5 16C12.5 16 12.5 16 12.5 16C12.5 16 12.5 16 12.5 16C12.5 16 12.5 16 12.5 16C12.5 16 12.5 16 12.5 16C12.5 16 12.5 16 12.5 16C12.5 16 12.5 16 12.5 16C12.5 16 12.5 16 12.5 16C12.5 16 12.5 16 12.5 16C12.5 16 12.5 16 12.5 16C12.5 16 12.5 16 12.5 16C12.5 16 12.5 16 12.5 16C12.5 16 12.5 16 12.5 16C12.5 16 12.5 16 12.5 16C12.5 16 12.5 16 12.5 16C12.5 16 12.5 16 12.5 16C12.5 16 12.5 16 12.5 16C12.5 16 12.5 16 12.5 16V16V16C12.5 16 12.5 16 12.5 16H15H17.5C17.5 16 17.5 16 17.5 16V16V16C17.5 16 17.5 16 17.5 16C17.5 16 17.5 16 17.5 16C17.5 16 17.5 16 17.5 16C17.5 16 17.5 16 17.5 16C17.5 16 17.5 16 17.5 16C17.5 16 17.5 16 17.5 16C17.5 16 17.5 16 17.5 16C17.5 16 17.5 16 17.5 16C17.5 16 17.5 16 17.5 16C17.5 16 17.5 16 17.5 16C17.5 16 17.5 16 17.5 16C17.5 16 17.5 16 17.5 16C17.5 16 17.5 16 17.5 16C17.5 16 17.5 16 17.5 16C17.5 16 17.5 16 17.5 16C17.5 16 17.5 16 17.5 16C17.5 16 17.5 16 17.5 16C17.5 16 17.5 16 17.5 15.9999C17.5 15.9999 17.5 15.9999 17.5 15.9999C17.5 15.9999 17.5 15.9999 17.5 15.9999C17.5 15.9999 17.5 15.9999 17.5 15.9999C17.5 15.9999 17.5 15.9999 17.5 15.9999C17.5 15.9999 17.5 15.9999 17.5 15.9999C17.5 15.9999 17.5 15.9999 17.5 15.9999C17.5 15.9999 17.5 15.9999 17.5 15.9999C17.5 15.9999 17.5 15.9999 17.5 15.9999C17.5 15.9999 17.5 15.9999 17.5 15.9999C17.5 15.9999 17.5 15.9999 17.5 15.9999C17.5 15.9998 17.5 15.9998 17.5 15.9998C17.5 15.9998 17.5 15.9998 17.5 15.9998C17.5 15.9998 17.5 15.9998 17.5 15.9998C17.5 15.9998 17.5 15.9998 17.5 15.9998C17.5 15.9998 17.5 15.9998 17.5 15.9998C17.5 15.9998 17.5 15.9998 17.5 15.9998C17.5 15.9998 17.5 15.9997 17.5 15.9997C17.5 15.9997 17.5 15.9997 17.5 15.9997C17.5 15.9997 17.5 15.9997 17.5 15.9997C17.5 15.9997 17.5 15.9997 17.5 15.9997C17.5 15.9997 17.5 15.9997 17.5 15.9997C17.5 15.9997 17.5 15.9996 17.5 15.9996C17.5 15.9996 17.5 15.9996 17.5 15.9996C17.5 15.9996 17.5 15.9996 17.5 15.9996C17.5 15.9996 17.5 15.9996 17.5 15.9996C17.5 15.9996 17.5 15.9995 17.5 15.9995C17.5 15.9995 17.5 15.9995 17.5 15.9995C17.5 15.9995 17.5 15.9995 17.5 15.9995C17.5 15.9995 17.5 15.9995 17.5 15.9994C17.5 15.9994 17.5 15.9994 17.5 15.9994C17.5 15.9994 17.5 15.9994 17.5 15.9994C17.5 15.9994 17.5 15.9994 17.5 15.9993C17.5 15.9993 17.5 15.9993 17.5 15.9993C17.5 15.9993 17.5 15.9993 17.5 15.9993C17.5 15.9993 17.5 15.9992 17.5 15.9992C17.5 15.9992 17.5 15.9992 17.5 15.9992C17.5 15.9992 17.5 15.9992 17.5 15.9992C17.5 15.9991 17.5 15.9991 17.5 15.9991C17.5 15.9991 17.5 15.9991 17.5 15.9991C17.5 15.9991 17.5 15.999 17.5 15.999C17.5 15.999 17.5 15.999 17.5 15.999C17.5 15.999 17.5 15.9989 17.5 15.9989C17.5 15.9989 17.5 15.9989 17.5 15.9989C17.5 15.9989 17.5 15.9988 17.5 15.9988C17.5 15.9988 17.5 15.9988 17.5 15.9988C17.5 15.9988 17.5 15.9987 17.5 15.9987C17.5 15.9987 17.5 15.9987 17.5 15.9987C17.5 15.9986 17.5 15.9986 17.5 15.9986C17.5 15.9986 17.5 15.9986 17.5 15.9986C17.5 15.9985 17.5 15.9985 17.5 15.9985C17.5 15.9985 17.5 15.9984 17.5 15.9984C17.5 15.9984 17.5 15.9984 17.5 15.9984C17.5 15.9983 17.5 15.9983 17.5 15.9983C17.5 15.9983 17.5 15.9983 17.5 15.9982C17.5 15.9982 17.5 15.9982 17.5 15.9982C17.5 15.9981 17.5 15.9981 17.5 15.9981C17.5 15.9981 17.5 15.998 17.5 15.998C17.5 15.998 17.5 15.998 17.5 15.9979C17.5 15.9979 17.5 15.9979 17.5 15.9979C17.5 15.9978 17.5 15.9978 17.5 15.9978C17.5 15.9978 17.5 15.9977 17.5 15.9977C17.5 15.9977 17.5 15.9977 17.5 15.9976C17.5 15.9976 17.5 15.9976 17.5 15.9975C17.5 15.9975 17.5 15.9975 17.5 15.9975C17.5 15.9974 17.5 15.9974 17.5 15.9974C17.5 15.9973 17.5 15.9973 17.5 15.9973C17.5 15.9973 17.5 15.9972 17.5 15.9972C17.5 15.9972 17.5 15.9971 17.5 15.9971C17.5 15.9971 17.5 15.997 17.5 15.997C17.5 15.997 17.5 15.9969 17.5 15.9969C17.5 15.9969 17.5 15.9968 17.5 15.9968C17.5 15.9968 17.5 15.9967 17.5 15.9967C17.5 15.9967 17.5 15.9966 17.5 15.9966C17.5 15.9966 17.5 15.9965 17.5 15.9965C17.5 15.9965 17.5 15.9964 17.5 15.9964C17.5 15.9963 17.5 15.9963 17.5 15.9963C17.5 15.9962 17.5 15.9962 17.5 15.9962C17.5 15.9961 17.5 15.9961 17.5 15.996C17.5 15.996 17.5 15.996 17.5 15.9959C17.5 15.9959 17.5 15.9959 17.5 15.9958C17.5 15.9958 17.5 15.9957 17.5 15.9957C17.5 15.9956 17.5 15.9956 17.5 15.9956C17.5 15.9955 17.5 15.9955 17.5 15.9954C17.5 15.9954 17.5 15.9954 17.5 15.9953C17.5 15.9953 17.5 15.9952 17.5 15.9952C17.5 15.9951 17.5 15.9951 17.5 15.995C17.5 15.995 17.5 15.995 17.5 15.9949C17.5 15.9949 17.5 15.9948 17.5 15.9948C17.5 15.9947 17.5 15.9947 17.5 15.9946C17.5 15.9946 17.5 15.9945 17.5 15.9945C17.5 15.9944 17.5 15.9944 17.5 15.9943C17.5 15.9943 17.5 15.9942 17.5 15.9942C17.5 15.9941 17.5 15.9941 17.5 15.994C17.5 15.994 17.5 15.9939 17.5 15.9939C17.5 15.9938 17.5 15.9938 17.5 15.9937C17.5 15.9937 17.5 15.9936 17.5 15.9936C17.5 15.9935 17.5 15.9935 17.5 15.9934C17.5 15.9933 17.5 15.9933 17.5 15.9932C17.5 15.9932 17.5 15.9931 17.5 15.9931C17.5 15.993 17.5 15.993 17.5 15.9929C17.5 15.9928 17.5 15.9928 17.5 15.9927C17.5 15.9927 17.5 15.9926 17.5 15.9925C17.5 15.9925 17.5 15.9924 17.5 15.9924C17.5 15.9923 17.5 15.9922 17.5 15.9922C17.5 15.9921 17.5 15.9921 17.5 15.992C17.5 15.9919 17.5 15.9919 17.5 15.9918C17.5 15.9918 17.5 15.9917 17.5 15.9916C17.5 15.9916 17.5 15.9915 17.5 15.9914C17.5 15.9914 17.5 15.9913 17.5 15.9912C17.5 15.9912 17.5 15.9911 17.5 15.991C17.5 15.991 17.5 15.9909 17.5 15.9908C17.5 15.9908 17.5 15.9907 17.5 15.9906C17.5 15.9906 17.5 15.9905 17.5 15.9904C17.5 15.9904 17.5 15.9903 17.5 15.9902C17.5 15.9901 17.5 15.9901 17.5 15.99C17.5 15.9899 17.5 15.9899 17.5 15.9898C17.5 15.9897 17.5 15.9896 17.5 15.9896C17.5 15.9895 17.5 15.9894 17.5 15.9893C17.5 15.9893 17.5 15.9892 17.5 15.9891C17.5 15.989 17.5 15.989 17.5 15.9889C17.5 15.9888 17.5 15.9887 17.5 15.9886C17.5 15.9886 17.5 15.9885 17.5 15.9884C17.5 15.9883 17.5 15.9882 17.5 15.9882C17.5 15.9881 17.5 15.988 17.5 15.9879C17.5 15.9878 17.5 15.9878 17.5 15.9877C17.5 15.9876 17.5 15.9875 17.5 15.9874C17.5 15.9873 17.5 15.9873 17.5 15.9872C17.5 15.9871 17.5 15.987 17.5 15.9869C17.5 15.9868 17.5 15.9867 17.5 15.9867C17.5 15.9866 17.5 15.9865 17.5 15.9864C17.5 15.9863 17.5 15.9862 17.5 15.9861C17.5 15.986 17.5 15.9859 17.5 15.9859C17.5 15.9858 17.5 15.9857 17.5 15.9856C17.5 15.9855 17.5 15.9854 17.5 15.9853C17.5 15.9852 17.5 15.9851 17.5 15.985C17.5 15.9849 17.5 15.9848 17.5 15.9847C17.5 15.9846 17.5 15.9845 17.5 15.9845C17.5 15.9844 17.5 15.9843 17.5 15.9842C17.5 15.9841 17.5 15.984 17.5 15.9839C17.5 15.9838 17.5 15.9837 17.5 15.9836C17.5 15.9835 17.5 15.9834 17.5 15.9833C17.5 15.9832 17.5 15.9831 17.5 15.983C17.5 15.9829 17.5 15.9828 17.5 15.9826C17.5 15.9825 17.5 15.9824 17.5 15.9823C17.5 15.9822 17.5 15.9821 17.5 15.982C17.5 15.9819 17.5 15.9818 17.5 15.9817C17.5 15.9816 17.5 15.9815 17.5 15.9814C17.5 15.9813 17.5 15.9812 17.5 15.981C17.5 15.9809 17.5 15.9808 17.5 15.9807C17.5 15.9806 17.5 15.9805 17.5 15.9804C17.5 15.9803 17.5 15.9801 17.5 15.98C17.5 15.9799 17.5 15.9798 17.5 15.9797C17.5 15.9796 17.5 15.9795 17.5 15.9793C17.5 15.9792 17.5 15.9791 17.5 15.979C17.5 15.9789 17.5 15.9788 17.5 15.9786C17.5 15.9785 17.5 15.9784 17.5 15.9783C17.5 15.9782 17.5 15.978 17.5 15.9779C17.5 15.9778 17.5 15.9777 17.5 15.9775C17.5 15.9774 17.5 15.9773 17.5 15.9772C17.5 15.977 17.5 15.9769 17.5 15.9768C17.5 15.9767 17.5 15.9765 17.5 15.9764C17.5 15.9763 17.5 15.9762 17.5 15.976C17.5 15.9759 17.5 15.9758 17.5 15.9756C17.5 15.9755 17.5 15.9754 17.5 15.9752C17.5 15.9751 17.5 15.975 17.5 15.9748C17.5 15.9747 17.5 15.9746 17.5 15.9744C17.5 15.9743 17.5 15.9742 17.5 15.974C17.5 15.9739 17.5 15.9738 17.5 15.9736C17.5 15.9735 17.5 15.9734 17.5 15.9732C17.5 15.9731 17.5 15.9729 17.5 15.9728C17.5 15.9727 17.5 15.9725 17.5 15.9724C17.5 15.9722 17.5 15.9721 17.5 15.972C17.5 15.9718 17.5 15.9717 17.5 15.9715C17.5 15.9714 17.5 15.9712 17.5 15.9711C17.5 15.9709 17.5 15.9708 17.5 15.9706C17.5 15.9705 17.5 15.9703 17.5 15.9702C17.5 15.97 17.5 15.9699 17.5 15.9697C17.5 15.9696 17.5 15.9694 17.5 15.9693C17.5 15.9691 17.5 15.969 17.5 15.9688C17.5 15.9687 17.5 15.9685 17.5 15.9684C17.5 15.9682 17.5 15.9681 17.5 15.9679C17.5 15.9677 17.5 15.9676 17.5 15.9674C17.5 15.9673 17.5 15.9671 17.5 15.967C17.5 15.9668 17.5 15.9666 17.5 15.9665C17.5 15.9663 17.5 15.9662 17.5 15.966C17.5 15.9658 17.5 15.9657 17.5 15.9655C17.5 15.9653 17.5 15.9652 17.5 15.965C17.5 15.9648 17.5 15.9647 17.5 15.9645C17.5 15.9643 17.5 15.9642 17.5 15.964C17.5 15.9638 17.5 15.9637 17.5 15.9635C17.5 15.9633 17.5 15.9631 17.5 15.963C17.5 15.9628 17.5 15.9626 17.5 15.9625C17.5 15.9623 17.5 15.9621 17.5 15.9619C17.5 15.9618 17.5 15.9616 17.5 15.9614C17.5 15.9612 17.5 15.9611 17.5 15.9609C17.5 15.9607 17.5 15.9605 17.5 15.9603C17.5 15.9602 17.5 15.96 17.5 15.9598C17.5 15.9596 17.5 15.9594 17.5 15.9592C17.5 15.9591 17.5 15.9589 17.5 15.9587C17.5 15.9585 17.5 15.9583 17.5 15.9581C17.5 15.9579 17.5 15.9578 17.5 15.9576C17.5 15.9574 17.5 15.9572 17.5 15.957C17.5 15.9568 17.5 15.9566 17.5 15.9564C17.5 15.9562 17.5 15.956 17.5 15.9558C17.5 15.9557 17.5 15.9555 17.5 15.9553C17.5 15.9551 17.5 15.9549 17.5 15.9547C17.5 15.9545 17.5 15.9543 17.5 15.9541C17.5 15.9539 17.5 15.9537 17.5 15.9535C17.5 15.9533 17.5 15.9531 17.5 15.9529C17.5 15.9527 17.5 15.9525 17.5 15.9523C17.5 15.9521 17.5 15.9519 17.5 15.9517C17.5 15.9514 17.5 15.9512 17.5 15.951C17.5 15.9508 17.5 15.9506 17.5 15.9504C17.5 15.9502 17.5 15.95 17.5 15.9498C17.5 15.9496 17.5 15.9494 17.5 15.9491C17.5 15.9489 17.5 15.9487 17.5 15.9485C17.5 15.9483 17.5 15.9481 17.5 15.9479C17.5 15.9476 17.5 15.9474 17.5 15.9472C17.5 15.947 17.5 15.9468 17.5 15.9465C17.5 15.9463 17.5 15.9461 17.5 15.9459C17.5 15.9457 17.5 15.9454 17.5 15.9452C17.5 15.945 17.5 15.9448 17.5 15.9445C17.5 15.9443 17.5 15.9441 17.5 15.9439C17.5 15.9436 17.5 15.9434 17.5 15.9432C17.5 15.9429 17.5 15.9427 17.5 15.9425C17.5 15.9423 17.5 15.942 17.5 15.9418C17.5 15.9416 17.5 15.9413 17.5 15.9411C17.5 15.9409 17.5 15.9406 17.5 15.9404C17.5 15.9401 17.5 15.9399 17.5 15.9397C17.5 15.9394 17.5 15.9392 17.5 15.939C17.5 15.9387 17.5 15.9385 17.5 15.9382C17.5 15.938 17.5 15.9377 17.5 15.9375C17.5 15.9373 17.5 15.937 17.5 15.9368C17.5 15.9365 17.5 15.9363 17.5 15.936C17.5 15.9358 17.5 15.9355 17.5 15.9353C17.5 15.935 17.5 15.9348 17.5 15.9345C17.5 15.9343 17.5 15.934 17.5 15.9338C17.5 15.9335 17.5 15.9333 17.5 15.933C17.5 15.9327 17.5 15.9325 17.5 15.9322C17.5 15.932 17.5 15.9317 17.5 15.9315C17.5 15.9312 17.5 15.9309 17.5 15.9307C17.5 15.9304 17.5 15.9301 17.5 15.9299C17.5 15.9296 17.5 15.9294 17.5 15.9291C17.5 15.9288 17.5 15.9286 17.5 15.9283C17.5 15.928 17.5 15.9278 17.5 15.9275C17.5 15.9272 17.5 15.9269 17.5 15.9267C17.5 15.9264 17.5 15.9261 17.5 15.9259C17.5 15.9256 17.5 15.9253 17.5 15.925C17.5 15.9248 17.5 15.9245 17.5 15.9242C17.5 15.9239 17.5 15.9236 17.5 15.9234C17.5 15.9231 17.5 15.9228 17.5 15.9225C17.5 15.9222 17.5 15.922 17.5 15.9217C17.5 15.9214 17.5 15.9211 17.5 15.9208C17.5 15.9205 17.5 15.9203 17.5 15.92C17.5 15.9197 17.5 15.9194 17.5 15.9191C17.5 15.9188 17.5 15.9185 17.5 15.9182C17.5 15.9179 17.5 15.9176 17.5 15.9173C17.5 15.917 17.5 15.9168 17.5 15.9165C17.5 15.9162 17.5 15.9159 17.5 15.9156C17.5 15.9153 17.5 15.915 17.5 15.9147C17.5 15.9144 17.5 15.9141 17.5 15.9138C17.5 15.9135 17.5 15.9132 17.5 15.9129C17.5 15.9125 17.5 15.9122 17.5 15.9119C17.5 15.9116 17.5 15.9113 17.5 15.911C17.5 15.9107 17.5 15.9104 17.5 15.9101C17.5 15.9098 17.5 15.9095 17.5 15.9091C17.5 15.9088 17.5 15.9085 17.5 15.9082C17.5 15.9079 17.5 15.9076 17.5 15.9073C17.5 15.9069 17.5 15.9066 17.5 15.9063C17.5 15.906 17.5 15.9057 17.5 15.9053C17.5 15.905 17.5 15.9047 17.5 15.9044C17.5 15.904 17.5 15.9037 17.5 15.9034C17.5 15.9031 17.5 15.9027 17.5 15.9024C17.5 15.9021 17.5 15.9017 17.5 15.9014C17.5 15.9011 17.5 15.9008 17.5 15.9004C17.5 15.9001 17.5 15.8998 17.5 15.8994C17.5 15.8991 17.5 15.8987 17.5 15.8984C17.5 15.8981 17.5 15.8977 17.5 15.8974C17.5 15.8971 17.5 15.8967 17.5 15.8964C17.5 15.896 17.5 15.8957 17.5 15.8953C17.5 15.895 17.5 15.8947 17.5 15.8943C17.5 15.894 17.5 15.8936 17.5 15.8933C17.5 15.8929 17.5 15.8926 17.5 15.8922C17.5 15.8919 17.5 15.8915 17.5 15.8912C17.5 15.8908 17.5 15.8904 17.5 15.8901C17.5 15.8897 17.5 15.8894 17.5 15.889C17.5 15.8887 17.5 15.8883 17.5 15.8879C17.5 15.8876 17.5 15.8872 17.5 15.8869C17.5 15.8865 17.5 15.8861 17.5 15.8858C17.5 15.8854 17.5 15.885 17.5 15.8847C17.5 15.8843 17.5 15.8839 17.5 15.8836C17.5 15.8832 17.5 15.8828 17.5 15.8825C17.5 15.8821 17.5 15.8817 17.5 15.8813C17.5 15.881 17.5 15.8806 17.5 15.8802C17.5 15.8798 17.5 15.8794 17.5 15.8791C17.5 15.8787 17.5 15.8783 17.5 15.8779C17.5 15.8775 17.5 15.8772 17.5 15.8768C17.5 15.8764 17.5 15.876 17.5 15.8756C17.5 15.8752 17.5 15.8749 17.5 15.8745C17.5 15.8741 17.5 15.8737 17.5 15.8733C17.5 15.8729 17.5 15.8725 17.5 15.8721C17.5 15.8717 17.5 15.8713 17.5 15.8709C17.5 15.8705 17.5 15.8701 17.5 15.8697C17.5 15.8693 17.5 15.8689 17.5 15.8685C17.5 15.8681 17.5 15.8677 17.5 15.8673C17.5 15.8669 17.5 15.8665 17.5 15.8661C17.5 15.8657 17.5 15.8653 17.5 15.8649C17.5 15.8645 17.5 15.8641 17.5 15.8637C17.5 15.8633 17.5 15.8629 17.5 15.8624C17.5 15.862 17.5 15.8616 17.5 15.8612C17.5 15.8608 17.5 15.8604 17.5 15.8599C17.5 15.8595 17.5 15.8591 17.5 15.8587C17.5 15.8583 17.5 15.8578 17.5 15.8574C17.5 15.857 17.5 15.8566 17.5 15.8562C17.5 15.8557 17.5 15.8553 17.5 15.8549C17.5 15.8544 17.5 15.854 17.5 15.8536C17.5 15.8532 17.5 15.8527 17.5 15.8523C17.5 15.8519 17.5 15.8514 17.5 15.851C17.5 15.8505 17.5 15.8501 17.5 15.8497C17.5 15.8492 17.5 15.8488 17.5 15.8484C17.5 15.8479 17.5 15.8475 17.5 15.847C17.5 15.8466 17.5 15.8461 17.5 15.8457C17.5 15.8452 17.5 15.8448 17.5 15.8444C17.5 15.8439 17.5 15.8435 17.5 15.843C17.5 15.8425 17.5 15.8421 17.5 15.8416C17.5 15.8412 17.5 15.8407 17.5 15.8403C17.5 15.8398 17.5 15.8394 17.5 15.8389C17.5 15.8384 17.5 15.838 17.5 15.8375C17.5 15.8371 17.5 15.8366 17.5 15.8361C17.5 15.8357 17.5 15.8352 17.5 15.8347C17.5 15.8343 17.5 15.8338 17.5 15.8333C17.5 15.8329 17.5 15.8324 17.5 15.8319C17.5 15.8315 17.5 15.831 17.5 15.8305C17.5 15.83 17.5 15.8296 17.5 15.8291C17.5 15.8286 17.5 15.8281 17.5 15.8276C17.5 15.8272 17.5 15.8267 17.5 15.8262C17.5 15.8257 17.5 15.8252 17.5 15.8247C17.5 15.8243 17.5 15.8238 17.5 15.8233C17.5 15.8228 17.5 15.8223 17.5 15.8218C17.5 15.8213 17.5 15.8208 17.5 15.8203C17.5 15.8198 17.5 15.8193 17.5 15.8189C17.5 15.8184 17.5 15.8179 17.5 15.8174C17.5 15.8169 17.5 15.8164 17.5 15.8159C17.5 15.8154 17.5 15.8149 17.5 15.8143C17.5 15.8138 17.5 15.8133 17.5 15.8128C17.5 15.8123 17.5 15.8118 17.5 15.8113C17.5 15.8108 17.5 15.8103 17.5 15.8098C17.5 15.8093 17.5 15.8087 17.5 15.8082C17.5 15.8077 17.5 15.8072 17.5 15.8067C17.5 15.8062 17.5 15.8056 17.5 15.8051C17.5 15.8046 17.5 15.8041 17.5 15.8035C17.5 15.803 17.5 15.8025 17.5 15.802C17.5 15.8014 17.5 15.8009 17.5 15.8004C17.5 15.7999 17.5 15.7993 17.5 15.7988C17.5 15.7983 17.5 15.7977 17.5 15.7972C17.5 15.7967 17.5 15.7961 17.5 15.7956C17.5 15.795 17.5 15.7945 17.5 15.794C17.5 15.7934 17.5 15.7929 17.5 15.7923C17.5 15.7918 17.5 15.7913 17.5 15.7907C17.5 15.7902 17.5 15.7896 17.5 15.7891C17.5 15.7885 17.5 15.788 17.5 15.7874C17.5 15.7869 17.5 15.7863 17.5 15.7857C17.5 15.7852 17.5 15.7846 17.5 15.7841C17.5 15.7835 17.5 15.783 17.5 15.7824C17.5 15.7818 17.5 15.7813 17.5 15.7807C17.5 15.7802 17.5 15.7796 17.5 15.779C17.5 15.7785 17.5 15.7779 17.5 15.7773C17.5 15.7767 17.5 15.7762 17.5 15.7756C17.5 15.775 17.5 15.7745 17.5 15.7739C17.5 15.7733 17.5 15.7727 17.5 15.7722C17.5 15.7716 17.5 15.771 17.5 15.7704C17.5 15.7698 17.5 15.7692 17.5 15.7687C17.5 15.7681 17.5 15.7675 17.5 15.7669C17.5 15.7663 17.5 15.7657 17.5 15.7651C17.5 15.7645 17.5 15.764 17.5 15.7634C17.5 15.7628 17.5 15.7622 17.5 15.7616C17.5 15.761 17.5 15.7604 17.5 15.7598C17.5 15.7592 17.5 15.7586 17.5 15.758C17.5 15.7574 17.5 15.7568 17.5 15.7562C17.5 15.7556 17.5 15.755 17.5 15.7544C17.5 15.7537 17.5 15.7531 17.5 15.7525C17.5 15.7519 17.5 15.7513 17.5 15.7507C17.5 15.7501 17.5 15.7495 17.5 15.7488C17.5 15.7482 17.5 15.7476 17.5 15.747C17.5 15.7464 17.5 15.7457 17.5 15.7451C17.5 15.7445 17.5 15.7439 17.5 15.7432C17.5 15.7426 17.5 15.742 17.5 15.7414C17.5 15.7407 17.5 15.7401 17.5 15.7395C17.5 15.7388 17.5 15.7382 17.5 15.7376C17.5 15.7369 17.5 15.7363 17.5 15.7357C17.5 15.735 17.5 15.7344 17.5 15.7337C17.5 15.7331 17.5 15.7325 17.5 15.7318C17.5 15.7312 17.5 15.7305 17.5 15.7299C17.5 15.7292 17.5 15.7286 17.5 15.7279C17.5 15.7273 17.5 15.7266 17.5 15.726C17.5 15.7253 17.5 15.7247 17.5 15.724C17.5 15.7233 17.5 15.7227 17.5 15.722C17.5 15.7214 17.5 15.7207 17.5 15.72C17.5 15.7194 17.5 15.7187 17.5 15.718C17.5 15.7174 17.5 15.7167 17.5 15.716C17.5 15.7154 17.5 15.7147 17.5 15.714C17.5 15.7134 17.5 15.7127 17.5 15.712C17.5 15.7113 17.5 15.7106 17.5 15.71C17.5 15.7093 17.5 15.7086 17.5 15.7079C17.5 15.7072 17.5 15.7066 17.5 15.7059C17.5 15.7052 17.5 15.7045 17.5 15.7038C17.5 15.7031 17.5 15.7024 17.5 15.7017C17.5 15.7011 17.5 15.7004 17.5 15.6997C17.5 15.699 17.5 15.6983 17.5 15.6976C17.5 15.6969 17.5 15.6962 17.5 15.6955C17.5 15.6948 17.5 15.6941 17.5 15.6934C17.5 15.6927 17.5 15.6919 17.5 15.6912C17.5 15.6905 17.5 15.6898 17.5 15.6891C17.5 15.6884 17.5 15.6877 17.5 15.687C17.5 15.6863 17.5 15.6855 17.5 15.6848C17.5 15.6841 17.5 15.6834 17.5 15.6827C17.5 15.6819 17.5 15.6812 17.5 15.6805C17.5 15.6798 17.5 15.679 17.5 15.6783C17.5 15.6776 17.5 15.6769 17.5 15.6761C17.5 15.6754 17.5 15.6747 17.5 15.6739C17.5 15.6732 17.5 15.6725 17.5 15.6717C17.5 15.671 17.5 15.6702 17.5 15.6695C17.5 15.6688 17.5 15.668 17.5 15.6673C17.5 15.6665 17.5 15.6658 17.5 15.665C17.5 15.6643 17.5 15.6635 17.5 15.6628C17.5 15.662 17.5 15.6613 17.5 15.6605C17.5 15.6598 17.5 15.659 17.5 15.6583C17.5 15.6575 17.5 15.6567 17.5 15.656C17.5 15.6552 17.5 15.6545 17.5 15.6537C17.5 15.6529 17.5 15.6522 17.5 15.6514C17.5 15.6506 17.5 15.6499 17.5 15.6491C17.5 15.6483 17.5 15.6475 17.5 15.6468C17.5 15.646 17.5 15.6452 17.5 15.6444C17.5 15.6437 17.5 15.6429 17.5 15.6421C17.5 15.6413 17.5 15.6405 17.5 15.6398C17.5 15.639 17.5 15.6382 17.5 15.6374C17.5 15.6366 17.5 15.6358 17.5 15.635C17.5 15.6342 17.5 15.6334 17.5 15.6326C17.5 15.6319 17.5 15.6311 17.5 15.6303C17.5 15.6295 17.5 15.6287 17.5 15.6279C17.5 15.6271 17.5 15.6262 17.5 15.6254C17.5 15.6246 17.5 15.6238 17.5 15.623C17.5 15.6222 17.5 15.6214 17.5 15.6206C17.5 15.6198 17.5 15.619 17.5 15.6181C17.5 15.6173 17.5 15.6165 17.5 15.6157C17.5 15.6149 17.5 15.6141 17.5 15.6132C17.5 15.6124 17.5 15.6116 17.5 15.6108C17.5 15.6099 17.5 15.6091 17.5 15.6083C17.5 15.6074 17.5 15.6066 17.5 15.6058C17.5 15.6049 17.5 15.6041 17.5 15.6033C17.5 15.6024 17.5 15.6016 17.5 15.6008C17.5 15.5999 17.5 15.5991 17.5 15.5982C17.5 15.5974 17.5 15.5965 17.5 15.5957C17.5 15.5948 17.5 15.594 17.5 15.5931C17.5 15.5923 17.5 15.5914 17.5 15.5906C17.5 15.5897 17.5 15.5889 17.5 15.588C17.5 15.5872 17.5 15.5863 17.5 15.5854C17.5 15.5846 17.5 15.5837 17.5 15.5828C17.5 15.582 17.5 15.5811 17.5 15.5802C17.5 15.5794 17.5 15.5785 17.5 15.5776C17.5 15.5768 17.5 15.5759 17.5 15.575C17.5 15.5741 17.5 15.5732 17.5 15.5724C17.5 15.5715 17.5 15.5706 17.5 15.5697C17.5 15.5688 17.5 15.568 17.5 15.5671C17.5 15.5662 17.5 15.5653 17.5 15.5644C17.5 15.5635 17.5 15.5626 17.5 15.5617C17.5 15.5608 17.5 15.5599 17.5 15.559C17.5 15.5581 17.5 15.5572 17.5 15.5563C17.5 15.5554 17.5 15.5545 17.5 15.5536C17.5 15.5527 17.5 15.5518 17.5 15.5509C17.5 15.55 17.5 15.5491 17.5 15.5482C17.5 15.5473 17.5 15.5463 17.5 15.5454C17.5 15.5445 17.5 15.5436 17.5 15.5427C17.5 15.5418 17.5 15.5408 17.5 15.5399C17.5 15.539 17.5 15.5381 17.5 15.5371C17.5 15.5362 17.5 15.5353 17.5 15.5343C17.5 15.5334 17.5 15.5325 17.5 15.5315C17.5 15.5306 17.5 15.5297 17.5 15.5287C17.5 15.5278 17.5 15.5268 17.5 15.5259C17.5 15.525 17.5 15.524 17.5 15.5231C17.5 15.5221 17.5 15.5212 17.5 15.5202C17.5 15.5193 17.5 15.5183 17.5 15.5174C17.5 15.5164 17.5 15.5155 17.5 15.5145C17.5 15.5135 17.5 15.5126 17.5 15.5116C17.5 15.5107 17.5 15.5097 17.5 15.5087C17.5 15.5078 17.5 15.5068 17.5 15.5058C17.5 15.5049 17.5 15.5039 17.5 15.5029C17.5 15.502 17.5 15.501 17.5 15.5H12.5ZM7.76411 13.6183C8.55937 15.2084 9.88443 16.2882 11.1361 16.9558C12.373 17.6155 13.7741 18 15 18V13C14.726 13 14.1272 12.8844 13.4892 12.5441C12.8659 12.2116 12.4409 11.7914 12.236 11.3817L7.76411 13.6183ZM10 16C12.5 15.9999 12.5 15.9999 12.5 15.9999C12.5 15.9999 12.5 15.9999 12.5 15.9999C12.5 15.9998 12.5 15.9997 12.5 15.9997C12.5 15.9995 12.5 15.9992 12.5 15.9988C12.5 15.9981 12.5 15.997 12.5 15.9956C12.5 15.9927 12.5 15.9883 12.5 15.9826C12.5 15.9711 12.5 15.954 12.5 15.9316C12.5 15.8867 12.5 15.8203 12.5 15.7344C12.5 15.5625 12.5 15.3125 12.5 15.0001C12.5 14.3751 12.5 13.5001 12.5 12.5001L7.50005 12.4999C7.50002 13.5001 7.50002 14.3751 7.50003 15.0001C7.50003 15.3126 7.50004 15.5626 7.50004 15.7345C7.50004 15.8204 7.50004 15.8868 7.50004 15.9317C7.50004 15.9542 7.50005 15.9713 7.50005 15.9827C7.50005 15.9885 7.50005 15.9928 7.50005 15.9957C7.50005 15.9972 7.50005 15.9983 7.50005 15.999C7.50005 15.9993 7.50005 15.9996 7.50005 15.9998C7.50005 15.9999 7.50005 16 7.50005 16C7.50005 16 7.50005 16 7.50005 16.0001C7.50005 16.0001 7.50005 16.0001 10 16Z" fill="currentColor" mask="url(#path-5-inside-1)"/>
    <rect x="19.25" y="20.25" width="2.5" height="2.5" stroke="currentColor" stroke-width="2.5"/>
    <circle cx="17.5" cy="6.5" r="5.5" stroke="currentColor" stroke-width="2"/>
    <line x1="21.4142" y1="11" x2="25" y2="14.5858" stroke="currentColor" stroke-width="2" stroke-linecap="round"/>
</svg>
