<svg width="24" height="24" viewBox="0 0 24 24" fill="none" xmlns="http://www.w3.org/2000/svg">
  <path fill-rule="evenodd" clip-rule="evenodd" d="M12 22C17.5228 22 22 17.5228 22 12C22 6.47715 17.5228 2 12 2C6.47715 2 2 6.47715 2 12C2 17.5228 6.47715 22 12 22ZM16.5303 10.0303C16.8232 9.73744 16.8232 9.26256 16.5303 8.96967C16.2374 8.67678 15.7626 8.67678 15.4697 8.96967L11 13.4393L8.53033 10.9697C8.23744 10.6768 7.76256 10.6768 7.46967 10.9697C7.17678 11.2626 7.17678 11.7374 7.46967 12.0303L10.4697 15.0303C10.7626 15.3232 11.2374 15.3232 11.5303 15.0303L16.5303 10.0303Z" fill="currentColor" />
</svg>
