<svg width="20" height="20" viewBox="0 0 20 20" fill="none" xmlns="http://www.w3.org/2000/svg">
<path fill-rule="evenodd" clip-rule="evenodd" d="M10 3.125C8.17664 3.125 6.42795 3.84933 5.13864 5.13864C3.84933 6.42795 3.125 8.17664 3.125 10C3.125 11.8234 3.84933 13.572 5.13864 14.8614C6.42795 16.1507 8.17664 16.875 10 16.875C11.8234 16.875 13.572 16.1507 14.8614 14.8614C16.1507 13.572 16.875 11.8234 16.875 10C16.875 8.17664 16.1507 6.42795 14.8614 5.13864C13.572 3.84933 11.8234 3.125 10 3.125ZM4.25476 4.25476C5.77849 2.73102 7.84512 1.875 10 1.875C12.1549 1.875 14.2215 2.73102 15.7452 4.25476C17.269 5.77849 18.125 7.84512 18.125 10C18.125 12.1549 17.269 14.2215 15.7452 15.7452C14.2215 17.269 12.1549 18.125 10 18.125C7.84512 18.125 5.77849 17.269 4.25476 15.7452C2.73102 14.2215 1.875 12.1549 1.875 10C1.875 7.84512 2.73102 5.77849 4.25476 4.25476ZM13.7753 7.47472C14.0194 7.7188 14.0194 8.11453 13.7753 8.35861L9.60861 12.5253C9.36453 12.7694 8.9688 12.7694 8.72472 12.5253L6.22472 10.0253C5.98065 9.7812 5.98065 9.38547 6.22472 9.14139C6.4688 8.89731 6.86453 8.89731 7.10861 9.14139L9.16667 11.1995L12.8914 7.47472C13.1355 7.23065 13.5312 7.23065 13.7753 7.47472Z" fill="currentColor"/>
</svg>
