<svg width="60" height="64" viewBox="0 0 60 64" fill="none" xmlns="http://www.w3.org/2000/svg">
<path d="M6.66667 0.666748H13.3333V10.6667H6.66667V0.666748ZM20 0.666748H26.6667V10.6667H20V0.666748ZM33.3333 0.666748H40V10.6667H33.3333V0.666748ZM53.3333 24.0001H46.6667V20.6667V17.3334H43.3333H3.33333H0V20.6667V37.3334V54.0001C0 59.5134 4.48667 64.0001 10 64.0001H36.6667C42.18 64.0001 46.6667 59.5134 46.6667 54.0001H53.3333C57.01 54.0001 60 51.0101 60 47.3334V30.6667C60 26.9901 57.01 24.0001 53.3333 24.0001ZM40 54.0001C40 55.8401 38.5067 57.3334 36.6667 57.3334H10C8.16 57.3334 6.66667 55.8401 6.66667 54.0001V37.3334V24.0001H40V27.3334V34.0001V50.6668V54.0001ZM46.6667 47.3334V34.0001V30.6667H53.3333L53.34 47.3334H46.6667Z" fill="#B8D1D9"/>
</svg>
