<svg width="20" height="20" viewBox="0 0 20 20" fill="none" xmlns="http://www.w3.org/2000/svg">
  <path d="M10 1.66675C8.35185 1.66675 6.74068 2.15549 5.37027 3.07117C3.99986 3.98685 2.93176 5.28834 2.30103 6.81105C1.6703 8.33377 1.50527 10.0093 1.82681 11.6258C2.14836 13.2423 2.94203 14.7272 4.10747 15.8926C5.27291 17.0581 6.75776 17.8517 8.37427 18.1733C9.99078 18.4948 11.6663 18.3298 13.1891 17.6991C14.7118 17.0683 16.0133 16.0002 16.9289 14.6298C17.8446 13.2594 18.3334 11.6483 18.3334 10.0001C18.3334 8.90573 18.1178 7.8221 17.699 6.81105C17.2802 5.80001 16.6664 4.88135 15.8926 4.10752C15.1188 3.3337 14.2001 2.71987 13.1891 2.30109C12.178 1.8823 11.0944 1.66675 10 1.66675ZM13.0917 11.9084C13.1698 11.9859 13.2318 12.0781 13.2741 12.1796C13.3164 12.2812 13.3382 12.3901 13.3382 12.5001C13.3382 12.6101 13.3164 12.719 13.2741 12.8206C13.2318 12.9221 13.1698 13.0143 13.0917 13.0917C13.0142 13.1699 12.9221 13.2319 12.8205 13.2742C12.719 13.3165 12.61 13.3382 12.5 13.3382C12.39 13.3382 12.2811 13.3165 12.1795 13.2742C12.078 13.2319 11.9858 13.1699 11.9084 13.0917L10 11.1834L8.09169 13.0917C8.01422 13.1699 7.92205 13.2319 7.8205 13.2742C7.71896 13.3165 7.61003 13.3382 7.50002 13.3382C7.39001 13.3382 7.28109 13.3165 7.17954 13.2742C7.07799 13.2319 6.98583 13.1699 6.90836 13.0917C6.83025 13.0143 6.76826 12.9221 6.72595 12.8206C6.68364 12.719 6.66186 12.6101 6.66186 12.5001C6.66186 12.3901 6.68364 12.2812 6.72595 12.1796C6.76826 12.0781 6.83025 11.9859 6.90836 11.9084L8.81669 10.0001L6.90836 8.09175C6.75144 7.93483 6.66328 7.722 6.66328 7.50008C6.66328 7.27816 6.75144 7.06533 6.90836 6.90841C7.06528 6.7515 7.27811 6.66334 7.50002 6.66334C7.72194 6.66334 7.93477 6.7515 8.09169 6.90841L10 8.81675L11.9084 6.90841C12.0653 6.7515 12.2781 6.66334 12.5 6.66334C12.7219 6.66334 12.9348 6.7515 13.0917 6.90841C13.2486 7.06533 13.3368 7.27816 13.3368 7.50008C13.3368 7.722 13.2486 7.93483 13.0917 8.09175L11.1834 10.0001L13.0917 11.9084Z" fill="currentColor"/>
</svg>
