<svg width="24" height="24" viewBox="0 0 24 24" fill="none" xmlns="http://www.w3.org/2000/svg">
  <path fill-rule="evenodd" clip-rule="evenodd" d="M22 12C22 17.5228 17.5228 22 12 22C6.47715 22 2 17.5228 2 12C2 6.47715 6.47715 2 12 2C17.5228 2 22 6.47715 22 12ZM12 6.25C12.4142 6.25 12.75 6.58579 12.75 7V13C12.75 13.4142 12.4142 13.75 12 13.75C11.5858 13.75 11.25 13.4142 11.25 13V7C11.25 6.58579 11.5858 6.25 12 6.25ZM11.95 16C11.3977 16 10.95 16.4477 10.95 17C10.95 17.5523 11.3977 18 11.95 18H12.05C12.6023 18 13.05 17.5523 13.05 17C13.05 16.4477 12.6023 16 12.05 16H11.95Z" fill="currentColor" />
</svg>
