<svg width="20" height="20" viewBox="0 0 20 20" fill="none" xmlns="http://www.w3.org/2000/svg">
<path d="M16.199 12.8659C16.9695 12.1011 17.5644 11.341 17.9532 10.7959C18.2065 10.4407 18.3332 10.263 18.3332 10.0001C18.3332 9.73716 18.2065 9.5595 17.9532 9.20425C16.8148 7.60795 13.9075 4.16675 9.99984 4.16675C9.24334 4.16675 8.52434 4.29571 7.8484 4.51531M5.62269 5.62293C3.94249 6.75608 2.70163 8.28563 2.04654 9.20425C1.79318 9.5595 1.6665 9.73716 1.6665 10.0001C1.6665 10.263 1.79318 10.4407 2.04654 10.7959C3.18492 12.3922 6.09215 15.8334 9.99984 15.8334C11.6588 15.8334 13.1374 15.2132 14.377 14.3772" stroke="currentColor" stroke-width="1.5" stroke-linecap="round" stroke-linejoin="round"/>
<path d="M8.21488 8.33325C7.77319 8.77492 7.5 9.38517 7.5 10.0592C7.5 11.4072 8.59275 12.4999 9.94075 12.4999C10.6147 12.4999 11.225 12.2268 11.6667 11.785" stroke="currentColor" stroke-width="1.5" stroke-linecap="round"/>
<path d="M2.5 2.5L17.5 17.5" stroke="currentColor" stroke-width="1.5" stroke-linecap="round" stroke-linejoin="round"/>
</svg>
