<svg width="19" height="19" viewBox="0 0 20 20" fill="none" xmlns="http://www.w3.org/2000/svg">
<path fill-rule="evenodd" clip-rule="evenodd" d="M10 2.29167C5.74283 2.29167 2.29169 5.74281 2.29169 10C2.29169 14.2572 5.74283 17.7083 10 17.7083C14.2572 17.7083 17.7084 14.2572 17.7084 10C17.7084 5.74281 14.2572 2.29167 10 2.29167ZM1.04169 10C1.04169 5.05245 5.05247 1.04167 10 1.04167C14.9476 1.04167 18.9584 5.05245 18.9584 10C18.9584 14.9476 14.9476 18.9583 10 18.9583C5.05247 18.9583 1.04169 14.9476 1.04169 10Z" fill="currentColor"/>
<path d="M10 14.1667C9.77899 14.1667 9.56703 14.0789 9.41075 13.9226C9.25446 13.7663 9.16667 13.5544 9.16667 13.3333V10C9.16667 9.77899 9.25446 9.56703 9.41075 9.41075C9.56703 9.25447 9.77899 9.16667 10 9.16667C10.221 9.16667 10.433 9.25447 10.5893 9.41075C10.7455 9.56703 10.8333 9.77899 10.8333 10V13.3333C10.8333 13.5544 10.7455 13.7663 10.5893 13.9226C10.433 14.0789 10.221 14.1667 10 14.1667ZM10 5.41667C9.75277 5.41667 9.5111 5.48998 9.30554 5.62733C9.09998 5.76469 8.93976 5.95991 8.84515 6.18832C8.75054 6.41673 8.72579 6.66806 8.77402 6.91053C8.82225 7.15301 8.9413 7.37574 9.11612 7.55056C9.29093 7.72537 9.51366 7.84442 9.75614 7.89265C9.99861 7.94088 10.2499 7.91613 10.4784 7.82152C10.7068 7.72691 10.902 7.5667 11.0393 7.36113C11.1767 7.15557 11.25 6.9139 11.25 6.66667C11.25 6.33515 11.1183 6.01721 10.8839 5.78279C10.6495 5.54837 10.3315 5.41667 10 5.41667Z" fill="currentColor"/>
</svg>
