<svg width="12" height="14" viewBox="0 0 12 14" fill="none" xmlns="http://www.w3.org/2000/svg">
  <path
    d="M6.00008 0.333313C4.16208 0.333313 2.66675 1.82865 2.66675 3.66665V5.66665H2.00008C1.26408 5.66665 0.666748 6.26398 0.666748 6.99998V12.3333C0.666748 13.0693 1.26408 13.6666 2.00008 13.6666H3.33341H5.33342H6.66675H8.00008H10.0001C10.7361 13.6666 11.3334 13.0693 11.3334 12.3333V6.99998C11.3334 6.26398 10.7361 5.66665 10.0001 5.66665H9.33342V3.66665C9.33342 1.82865 7.83808 0.333313 6.00008 0.333313ZM4.00008 3.66665C4.00008 2.56398 4.89741 1.66665 6.00008 1.66665C7.10275 1.66665 8.00008 2.56398 8.00008 3.66665V5.66665H4.00008V3.66665ZM6.66675 10.8153V12.3333H5.33342V10.8153C4.84875 10.534 4.55408 9.96332 4.70741 9.33265C4.82475 8.85265 5.22742 8.46465 5.71142 8.36398C6.57408 8.18265 7.33342 8.83531 7.33342 9.66665C7.33342 10.1593 7.06408 10.5846 6.66675 10.8153Z"
    fill="currentColor"/>
</svg>
