<svg width="18" height="12" viewBox="0 0 18 12" fill="none" xmlns="http://www.w3.org/2000/svg">
<path d="M13.1698 0.166504C13.1682 0.166504 13.1673 0.166504 13.1665 0.166504H13.1657H6.49984C4.96817 0.166504 3.5115 0.780671 2.3965 1.8965C1.28067 3.01234 0.666504 4.469 0.666504 5.99984C0.666504 7.5315 1.28067 8.98817 2.3965 10.1032C3.5115 11.219 4.96817 11.8332 6.49984 11.8332H13.1665V10.1665H6.49984C5.414 10.1665 4.37484 9.72567 3.57484 8.92484C2.774 8.12484 2.33317 7.08567 2.33317 5.99984C2.33317 4.91484 2.774 3.87567 3.57484 3.07484C4.37484 2.274 5.414 1.83317 6.49984 1.83317H13.1665V0.999837L13.1673 1.83317C13.1682 1.83317 13.169 1.83317 13.1698 1.83317C13.8282 1.83317 14.4523 2.09484 14.9273 2.5715C15.4032 3.04734 15.6657 3.67317 15.6665 4.33484C15.6673 4.99234 15.4057 5.61734 14.9298 6.09317C14.4523 6.56984 13.8257 6.83234 13.1665 6.83317H6.49984C6.2865 6.83317 6.079 6.744 5.91817 6.58317C5.75567 6.42067 5.6665 6.21317 5.6665 5.99984C5.6665 5.78984 5.75817 5.57734 5.91734 5.41817C6.079 5.25567 6.2865 5.1665 6.49984 5.1665H13.1665V3.49984H6.49984C5.8415 3.49984 5.21567 3.76234 4.73817 4.24067C4.2615 4.71734 3.99984 5.34234 3.99984 5.99984C3.99984 6.65734 4.2615 7.28317 4.73984 7.76151C5.2165 8.23817 5.84234 8.49984 6.49984 8.49984H13.1673C14.2707 8.49901 15.3148 8.06401 16.1073 7.27234C16.8998 6.48067 17.3348 5.43567 17.3332 4.33234C17.3323 3.22734 16.8965 2.18317 16.1065 1.39317C15.3165 0.601504 14.2732 0.166504 13.1698 0.166504Z" fill="#738F99"/>
</svg>
