<svg width="16" height="16" viewBox="0 0 16 16" fill="none" xmlns="http://www.w3.org/2000/svg">
<path d="M1.33579 15.5001C1.40329 15.5001 1.47079 15.4918 1.53746 15.4751L4.87079 14.6418C5.01746 14.6051 5.15163 14.5293 5.25829 14.4226L15.5025 4.17842C15.8175 3.86342 15.9908 3.44509 15.9908 3.00009C15.9908 2.55509 15.8175 2.13675 15.5025 1.82175L14.1808 0.500088C13.5508 -0.129912 12.4541 -0.129912 11.8241 0.500088L1.57996 10.7443C1.47329 10.8509 1.39746 10.9851 1.36079 11.1309L0.52746 14.4643C0.455793 14.7484 0.53996 15.0484 0.746626 15.2559C0.904126 15.4143 1.11746 15.5001 1.33579 15.5001ZM13.0025 1.67842L14.3241 3.00009L13.0025 4.32175L11.6808 3.00009L13.0025 1.67842ZM2.92163 11.7593L10.5025 4.17842L11.8241 5.50009L4.24246 13.0809L2.48079 13.5209L2.92163 11.7593Z" fill="#738F99"/>
</svg>
