<svg width="20" height="20" viewBox="0 0 20 20" fill="none" xmlns="http://www.w3.org/2000/svg">
    <path
            d="M15.3333 6.00004H13.3333V4.66671C13.3333 3.93137 12.7353 3.33337 11.9999 3.33337H7.99992C7.26459 3.33337 6.66659 3.93137 6.66659 4.66671V6.00004H4.66659C3.93125 6.00004 3.33325 6.59804 3.33325 7.33337V9.33337H16.6666V7.33337C16.6666 6.59804 16.0686 6.00004 15.3333 6.00004ZM7.99992 4.66671H11.9999V6.00004H7.99992V4.66671ZM11.3333 11.3334H8.66659V10H3.33325V14.6667C3.33325 15.402 3.93125 16 4.66659 16H15.3333C16.0686 16 16.6666 15.402 16.6666 14.6667V10H11.3333V11.3334Z"
            fill="currentColor"/>
</svg>
