<svg width="20" height="20" viewBox="0 0 20 20" fill="none" xmlns="http://www.w3.org/2000/svg">
  <path fill-rule="evenodd" clip-rule="evenodd"
        d="M17.4999 8.14523C17.744 8.16856 18.1049 8.26606 18.2732 8.67273C18.3232 8.7944 18.3424 8.9244 18.3332 9.0519V10.6669C18.3332 11.1277 17.9607 11.5002 17.4999 11.5002V15.6669C17.4999 16.5861 16.7524 17.3336 15.8332 17.3336H4.16654C3.24737 17.3336 2.49987 16.5861 2.49987 15.6669V11.5002H2.49154C2.0307 11.5002 1.6582 11.1277 1.6582 10.6669V9.00023C1.6582 8.56356 1.9957 8.20023 2.43154 8.1694C2.43154 8.1694 2.45904 8.1669 2.49987 8.1644V5.6669C2.49987 4.74773 3.24737 4.00023 4.16654 4.00023H9.16654V3.5002C8.91237 3.27186 8.74987 2.94353 8.74987 2.5752C8.74987 1.8852 9.30987 1.3252 9.99987 1.3252C10.6899 1.3252 11.2499 1.8852 11.2499 2.5752C11.2499 2.94353 11.0874 3.27186 10.8332 3.5002V4.00023H15.8332C16.7524 4.00023 17.4999 4.74773 17.4999 5.6669V8.14523ZM4.16654 5.6669V15.6669H15.8349L15.834 10.6711L15.8332 10.6669V9.00023L15.834 8.9969L15.8332 5.6669H4.16654ZM8.33301 9.00016C8.33301 9.92064 7.77336 10.6668 7.08301 10.6668C6.39265 10.6668 5.83301 9.92064 5.83301 9.00016C5.83301 8.07969 6.39265 7.3335 7.08301 7.3335C7.77336 7.3335 8.33301 8.07969 8.33301 9.00016ZM12.917 10.6668C13.6073 10.6668 14.167 9.92064 14.167 9.00016C14.167 8.07969 13.6073 7.3335 12.917 7.3335C12.2266 7.3335 11.667 8.07969 11.667 9.00016C11.667 9.92064 12.2266 10.6668 12.917 10.6668ZM13.3337 12.3335H6.66699V14.0002H13.3337V12.3335Z"
        fill="currentColor"/>
</svg>
