 <svg
  width="20"
  height="20"
  viewBox="0 0 20 20"
  fill="none"
  xmlns="http://www.w3.org/2000/svg"
>
  <path
    d="M11.4397 2.87011L12.9062 5.82736C13.1062 6.23902 13.6395 6.63388 14.0894 6.70949L16.7475 7.15476C18.4473 7.4404 18.8472 8.68379 17.6224 9.91037L15.5559 11.9939C15.206 12.3467 15.0143 13.0272 15.1226 13.5145L15.7142 16.0937C16.1809 18.1352 15.106 18.9249 13.3145 17.858L10.8231 16.3709C10.3732 16.1021 9.63158 16.1021 9.1733 16.3709L6.68191 17.858C4.89877 18.9249 3.81556 18.1268 4.28218 16.0937L4.87378 13.5145C4.9821 13.0272 4.79045 12.3467 4.44049 11.9939L2.37405 9.91037C1.15752 8.68379 1.54914 7.4404 3.24896 7.15476L5.907 6.70949C6.34861 6.63388 6.88189 6.23902 7.08187 5.82736L8.54837 2.87011C9.34828 1.26547 10.6481 1.26547 11.4397 2.87011Z"
    stroke="currentColor"
    strokeWidth="1.5"
    strokeLinecap="round"
    strokeLinejoin="round"
  />
</svg>
