<svg width="20" height="20" viewBox="0 0 20 20" fill="none" xmlns="http://www.w3.org/2000/svg">
    <path fill-rule="evenodd" clip-rule="evenodd"
          d="M18 10C18 14.4183 14.4183 18 10 18C5.58172 18 2 14.4183 2 10C2 5.58172 5.58172 2 10 2C14.4183 2 18 5.58172 18 10ZM16.6667 10C16.6667 13.6819 13.6819 16.6667 10 16.6667C8.41381 16.6667 6.957 16.1127 5.81249 15.1877L15.1877 5.81249C16.1127 6.957 16.6667 8.41381 16.6667 10ZM4.86394 14.2506L14.2506 4.86394C13.0968 3.90795 11.6155 3.33333 10 3.33333C6.3181 3.33333 3.33333 6.3181 3.33333 10C3.33333 11.6155 3.90795 13.0968 4.86394 14.2506Z"
          fill="#000000"/>
</svg>
