<svg width="16" height="16" viewBox="0 0 16 16" fill="none" xmlns="http://www.w3.org/2000/svg">
<path fill-rule="evenodd" clip-rule="evenodd" d="M16 8C16 12.4183 12.4183 16 8 16C3.58172 16 0 12.4183 0 8C0 3.58172 3.58172 0 8 0C12.4183 0 16 3.58172 16 8ZM14.6667 8C14.6667 11.6819 11.6819 14.6667 8 14.6667C6.41381 14.6667 4.957 14.1127 3.81249 13.1877L13.1877 3.81249C14.1127 4.957 14.6667 6.41381 14.6667 8ZM2.86394 12.2506L12.2506 2.86394C11.0968 1.90795 9.61549 1.33333 8 1.33333C4.3181 1.33333 1.33333 4.3181 1.33333 8C1.33333 9.61549 1.90795 11.0968 2.86394 12.2506Z" fill="#F53A3A"/>
</svg>
