<svg width="20" height="20" viewBox="0 0 20 20" fill="none" xmlns="http://www.w3.org/2000/svg">
<path d="M13.3333 5.83333C13.3333 6.4926 13.1378 7.13707 12.7715 7.68523C12.4052 8.2334 11.8846 8.66064 11.2755 8.91293C10.6664 9.16522 9.99622 9.23124 9.34962 9.10262C8.70301 8.974 8.10907 8.65653 7.6429 8.19036C7.17672 7.72418 6.85925 7.13024 6.73063 6.48363C6.60202 5.83703 6.66803 5.16681 6.92032 4.55772C7.17261 3.94863 7.59985 3.42804 8.14802 3.06177C8.69618 2.6955 9.34065 2.5 9.99992 2.5C10.884 2.5 11.7318 2.85119 12.3569 3.47631C12.9821 4.10143 13.3333 4.94928 13.3333 5.83333ZM12.4999 12.5H7.49992C6.39485 12.5 5.33504 12.939 4.55364 13.7204C3.77224 14.5018 3.33325 15.5616 3.33325 16.6667C3.33325 16.8877 3.42105 17.0996 3.57733 17.2559C3.73361 17.4122 3.94557 17.5 4.16659 17.5H15.8333C16.0543 17.5 16.2662 17.4122 16.4225 17.2559C16.5788 17.0996 16.6666 16.8877 16.6666 16.6667C16.6666 15.5616 16.2276 14.5018 15.4462 13.7204C14.6648 12.939 13.605 12.5 12.4999 12.5Z" stroke="currentColor" stroke-width="1.5" stroke-linecap="round" stroke-linejoin="round"/>
</svg>
