<svg width="20" height="20" viewBox="0 0 20 20" fill="none" xmlns="http://www.w3.org/2000/svg">
  <path fill-rule="evenodd" clip-rule="evenodd"
        d="M10 3.125C8.64026 3.125 7.31105 3.52821 6.18046 4.28365C5.04987 5.03908 4.16868 6.11281 3.64833 7.36905C3.12798 8.62529 2.99183 10.0076 3.2571 11.3412C3.52238 12.6749 4.17716 13.8999 5.13864 14.8614C6.10013 15.8228 7.32514 16.4776 8.65876 16.7429C9.99238 17.0082 11.3747 16.872 12.631 16.3517C13.8872 15.8313 14.9609 14.9501 15.7164 13.8195C16.4718 12.689 16.875 11.3597 16.875 10C16.875 8.17664 16.1507 6.42795 14.8614 5.13864C13.5721 3.84933 11.8234 3.125 10 3.125ZM5.486 3.24431C6.82214 2.35152 8.39303 1.875 10 1.875C12.1549 1.875 14.2215 2.73102 15.7452 4.25476C17.269 5.77849 18.125 7.84512 18.125 10C18.125 11.607 17.6485 13.1779 16.7557 14.514C15.8629 15.8502 14.594 16.8916 13.1093 17.5065C11.6247 18.1215 9.99099 18.2824 8.4149 17.9689C6.8388 17.6554 5.39106 16.8815 4.25476 15.7452C3.11846 14.6089 2.34463 13.1612 2.03112 11.5851C1.71762 10.009 1.87852 8.37535 2.49348 6.8907C3.10844 5.40605 4.14985 4.1371 5.486 3.24431ZM10 5.20833C10.3452 5.20833 10.625 5.48816 10.625 5.83333V10.8333C10.625 11.1785 10.3452 11.4583 10 11.4583C9.65483 11.4583 9.375 11.1785 9.375 10.8333V5.83333C9.375 5.48816 9.65483 5.20833 10 5.20833Z"
        fill="currentColor"/>
  <path d="M10.0413 14.1665H9.95801" stroke="currentColor" stroke-width="2" stroke-linecap="round" stroke-linejoin="round"/>
</svg>
