<svg width="512" height="512" viewBox="0 0 512 512" fill="none" xmlns="http://www.w3.org/2000/svg">
<path d="M258.924 105.862C342.815 105.862 410.856 173.003 410.856 255.785C410.856 260.077 410.663 264.369 410.325 268.565H376.836C377.319 264.369 377.561 260.125 377.561 255.785C377.561 191.171 324.452 138.765 258.972 138.765C214.32 138.765 175.419 163.132 155.219 199.135H354.172C360.84 210.627 365.866 222.596 368.234 235.71H131.491H108.392C118.347 162.417 181.942 105.862 258.924 105.862ZM258.924 372.806C300.483 372.806 337.016 351.681 358.231 319.779H396.359C372.052 370.565 319.619 405.757 258.924 405.757C181.942 405.757 118.299 349.201 108.344 275.909H142.075H474.548V235.71H416.945C415.351 223.216 412.258 210.866 407.57 199.135H497.889H512V197.561C508.521 182.922 503.785 168.807 497.889 155.264C470.537 92.2239 418.25 42.2971 353.302 17.3575C324.162 6.19913 292.509 0 259.407 0C226.305 0 194.652 6.19913 165.56 17.3575C121.343 34.3336 83.0218 62.8496 54.4136 99.2337C20.3447 142.58 0 196.894 0 255.976C0 315.059 20.3447 369.372 54.4136 412.719C91.6236 460.023 145.216 494.166 206.83 506.707C223.792 510.14 241.382 512 259.407 512C277.335 512 294.829 510.14 311.743 506.707C395.731 489.731 464.883 432.699 497.889 356.688C503.785 343.145 508.521 329.03 512 314.391V312.436H497.889H155.171C175.419 348.438 214.272 372.806 258.924 372.806Z" fill="#CD3433"/>
</svg>
