<svg width="169" height="48" viewBox="0 0 169 48" fill="none" xmlns="http://www.w3.org/2000/svg">
<g clip-path="url(#clip0_2_448)">
<path d="M142.995 25.7839C142.973 26.0958 143.044 26.4074 143.2 26.6781C143.538 27.1475 144.513 27.1788 145.02 27.1788H149.163C150.289 27.1788 151.041 26.9508 151.041 25.7168V25.3502C150.427 25.5299 149.789 25.6129 149.15 25.5961H145.02C142.35 25.5961 141.015 24.6617 141.015 21.8405V18.608H142.999V22.2206C142.98 22.5323 143.051 22.8431 143.204 23.1148C143.542 23.5842 144.517 23.6155 145.024 23.6155H149.167C150.293 23.6155 151.045 23.3875 151.045 22.1535V18.5768H153.026V25.3413C153.026 28.1267 151.833 29.1237 149.154 29.1237H145.024C142.483 29.1237 141.157 28.2832 141.019 25.7839H142.995Z" fill="#787874"/>
<path d="M87.9419 23.8569C87.9419 24.3711 87.9108 25.3502 87.4435 25.69C87.1728 25.8434 86.8637 25.9148 86.5534 25.8957H82.5616V20.6602H86.4822C87.7149 20.6602 87.9419 21.4203 87.9419 22.5514V23.8569ZM80.5724 25.9002H76.5984C76.2882 25.9196 75.979 25.8481 75.7084 25.6945C75.2366 25.3547 75.2099 24.3532 75.2099 23.8614V22.5514C75.2099 21.4203 75.4369 20.6602 76.6696 20.6602H80.5902L80.5724 25.9002ZM88.4982 19.1625C87.7647 18.7901 86.9469 18.6174 86.1262 18.6617H77.0034C75.5526 18.6617 74.5958 18.9926 74.0039 19.6856C73.4121 20.3786 73.2296 21.2683 73.2296 22.5604V23.8525C73.2296 25.1669 73.4521 26.155 74.0039 26.8256C74.5558 27.4963 75.5304 27.8897 76.9767 27.8897H80.568V29.231H82.5572V27.8897H86.1485C86.9631 27.9333 87.774 27.7524 88.4937 27.3666C89.5084 26.7496 89.8955 25.5783 89.8955 23.848V22.5648C89.8955 20.8525 89.495 19.7482 88.4937 19.1625" fill="#787874"/>
<path d="M113.081 18.6081H115.07V29.1237H113.081V24.8629H105.609V29.1237H103.62V18.6081H105.609V22.8644H113.081V18.6081Z" fill="#787874"/>
<path d="M70.2613 18.7019H72.2506V29.2221H70.2613V24.9612H62.7895V29.2221H60.8003V18.7019H62.7895V22.9627H70.2613V18.7019Z" fill="#787874"/>
<path d="M57.7341 21.5633V29.2221H59.7233V18.7019H57.5739L50.2622 27.2459V18.7019H48.273V29.2221H51.1923L57.7341 21.5633Z" fill="#787874"/>
<path d="M125.528 21.465V29.1237H127.517V18.6081H125.363L118.056 27.152V18.6081H116.067V29.1237H118.982L125.528 21.465Z" fill="#787874"/>
<path d="M100.638 21.465V29.1237H102.627V18.6081H100.474L93.1664 27.152V18.6081H91.1772V29.1237H94.092L100.638 21.465Z" fill="#787874"/>
<path d="M135.532 20.5797V29.1237H133.543V20.5797H128.95V18.6081H140.151V20.5797H135.532Z" fill="#787874"/>
<path d="M165.865 18.6081L161.379 26.2265L156.871 18.6081H153.978V29.1237H155.967V20.7854L160.831 29.1237H161.913L166.768 20.8078V29.1237H168.757V18.6081H165.865Z" fill="#787874"/>
<path d="M23.8994 9.92549C27.6086 9.92786 31.1651 11.4099 33.787 14.0457C36.409 16.6816 37.8818 20.2556 37.8818 23.9821C37.8818 24.3845 37.8818 24.7869 37.8329 25.1803H34.7667C35.0484 22.6563 34.4498 20.1123 33.073 17.9822C31.6961 15.8521 29.6263 14.2679 27.2167 13.4998C24.807 12.7317 22.2068 12.8273 19.8594 13.7702C17.5121 14.7132 15.5631 16.4452 14.3449 18.6706H32.6662C33.2929 19.7294 33.7312 20.8899 33.9612 22.0999H10.0371C10.4913 18.7294 12.1462 15.6386 14.695 13.4001C17.2439 11.1616 20.514 9.92718 23.8994 9.92549ZM23.8994 34.9627C25.7159 34.9629 27.5037 34.5075 29.1007 33.6377C30.6977 32.768 32.0533 31.5115 33.0445 29.9821H36.5468C35.26 32.7263 33.1241 34.9786 30.4582 36.4027C27.7922 37.8268 24.7393 38.3462 21.7553 37.8834C18.7713 37.4207 16.0163 36.0005 13.9019 33.8351C11.7875 31.6696 10.427 28.8751 10.0237 25.8689H43.7605V22.0999H38.4515C38.306 20.9253 38.016 19.7734 37.5881 18.6706H47.205V18.5231C46.884 17.1651 46.4447 15.838 45.8922 14.5574C43.7271 9.47478 39.8819 5.29897 35.0063 2.73565C30.1308 0.172332 24.5238 -0.621295 19.1331 0.488889C13.7424 1.59907 8.8985 4.54499 5.41999 8.82878C1.94147 13.1126 0.041687 18.4715 0.041687 24C0.041687 29.5285 1.94147 34.8874 5.41999 39.1712C8.8985 43.455 13.7424 46.4009 19.1331 47.5111C24.5238 48.6213 30.1308 47.8277 35.0063 45.2644C39.8819 42.701 43.7271 38.5252 45.8922 33.4426C46.4401 32.1615 46.875 30.8345 47.1916 29.4769V29.2936H14.3449C15.2888 31.0087 16.6729 32.4383 18.3532 33.4337C20.0336 34.4292 21.9487 34.9541 23.8994 34.9538" fill="#F53A3A"/>
</g>
<defs>
<clipPath id="clip0_2_448">
<rect width="169" height="48" fill="white"/>
</clipPath>
</defs>
</svg>
