<svg width="380" height="108" viewBox="0 0 380 108" fill="none" xmlns="http://www.w3.org/2000/svg">
<g clip-path="url(#clip0_12314_86)">
<path d="M321.2 57.6701C321.21 58.3101 321.28 59.1001 321.66 59.6201C322.42 60.6801 324.61 60.7401 325.75 60.7401H335.06C337.59 60.7401 339.28 60.2301 339.28 57.4701V56.7001C338.11 57.0801 336.7 57.2501 335.03 57.2501H325.75C319.74 57.2501 316.74 55.1601 316.74 48.8501V41.6201H321.2V49.7101C321.2 50.3601 321.26 51.1901 321.66 51.7401C322.42 52.8001 324.61 52.8601 325.75 52.8601H335.06C337.59 52.8601 339.28 52.3501 339.28 49.5901V41.7001V41.6301H343.73V41.7001V48.8001V56.6901C343.73 62.9201 341.05 65.1501 335.03 65.1501H325.75C320.04 65.1501 317.06 63.2701 316.77 57.6801H321.2V57.6701Z" fill="#777773"/>
<path d="M197.49 53.3602C197.49 54.5102 197.42 56.7002 196.37 57.4602C195.82 57.8602 194.99 57.9202 194.34 57.9202H187.96H185.4V46.2102H187.96H194.21C196.98 46.2102 197.49 47.9102 197.49 50.4402V53.3602ZM180.93 57.9302H178.37H172C171.35 57.9302 170.52 57.8702 169.97 57.4702C168.91 56.7102 168.85 54.5102 168.85 53.3702V50.4402C168.85 47.9102 169.36 46.2102 172.13 46.2102H178.38H180.94V57.9302H180.93ZM198.75 42.8602C197.45 42.1102 195.71 41.7402 193.42 41.7402H187.96H178.38H172.92C169.66 41.7402 167.51 42.4802 166.18 44.0302C164.96 45.4602 164.44 47.5702 164.44 50.4602V53.3502C164.44 56.2802 164.94 58.5002 166.18 60.0002C167.49 61.5902 169.61 62.3802 172.86 62.3802H178.38H180.94V65.3402H185.41V62.4002H187.97H193.49C195.76 62.4002 197.48 62.0102 198.76 61.2302C201.04 59.8502 201.91 57.2302 201.91 53.3602V50.4702C201.9 46.6402 201 44.1702 198.75 42.8602Z" fill="#777773"/>
<path d="M253.98 41.6201H258.45V65.1401H253.98V55.6101H237.19V65.1401H232.72V41.6201H237.19V51.1401H253.98V41.6201Z" fill="#777773"/>
<path d="M157.76 41.8301H162.23V65.3501H157.76V55.8301H140.97V65.3501H136.5V41.8301H140.97V51.3601H157.76V41.8301Z" fill="#777773"/>
<path d="M129.61 48.2201V65.3501H134.08V41.8301H129.25L112.82 60.9401V41.8301H108.35V65.3501H114.91L129.61 48.2201Z" fill="#777773"/>
<path d="M281.95 48.0101V65.1401H286.42V41.6201H281.58L265.16 60.7201V41.6201H260.69V65.1401H267.24L281.95 48.0101Z" fill="#777773"/>
<path d="M226.02 48.0101V65.1401H230.49V41.6201H225.65L209.23 60.7201V41.6201H204.76V65.1401H211.31L226.02 48.0101Z" fill="#777773"/>
<path d="M304.43 46.0301V65.1401H299.96V46.0301H289.64V41.6201H314.82V46.0301H304.43Z" fill="#777773"/>
<path d="M372.59 41.6201L362.51 58.6601L352.38 41.6201H345.88V65.1401H350.35V46.4901L361.28 65.1401H363.72L374.62 46.5401V65.1401H379.09V41.6201H372.59Z" fill="#777773"/>
<path d="M53.58 22.2C70.94 22.2 85.02 36.28 85.02 53.64C85.02 54.54 84.98 55.44 84.91 56.32H77.98C78.08 55.44 78.13 54.55 78.13 53.64C78.13 40.09 67.14 29.1 53.59 29.1C44.35 29.1 36.3 34.21 32.12 41.76H73.29C74.67 44.17 75.71 46.68 76.2 49.43H27.21H22.43C24.49 34.06 37.65 22.2 53.58 22.2ZM53.58 78.18C62.18 78.18 69.74 73.75 74.13 67.06H82.02C76.99 77.71 66.14 85.09 53.58 85.09C37.65 85.09 24.48 73.23 22.42 57.86H29.4H98.2V49.43H86.28C85.95 46.81 85.31 44.22 84.34 41.76H103.03H105.95V41.43C105.23 38.36 104.25 35.4 103.03 32.56C97.37 19.34 86.55 8.87 73.11 3.64C67.08 1.3 60.53 0 53.68 0C46.83 0 40.28 1.3 34.26 3.64C25.11 7.2 17.18 13.18 11.26 20.81C4.21 29.9 0 41.29 0 53.68C0 66.07 4.21 77.46 11.26 86.55C18.96 96.47 30.05 103.63 42.8 106.26C46.31 106.98 49.95 107.37 53.68 107.37C57.39 107.37 61.01 106.98 64.51 106.26C81.89 102.7 96.2 90.74 103.03 74.8C104.25 71.96 105.23 69 105.95 65.93V65.52H103.03H32.11C36.3 73.07 44.34 78.18 53.58 78.18Z" fill="#CD3433"/>
<path d="M238.6 71.3198V72.5798H234.69V77.6398H233.17V71.3198H238.6Z" fill="#CD3433"/>
<path d="M242.91 74.5198H245.43C245.68 74.5198 245.88 74.4898 246.02 74.4198C246.16 74.3498 246.26 74.2498 246.32 74.0998C246.38 73.9598 246.41 73.7698 246.41 73.5298C246.41 73.1998 246.34 72.9498 246.2 72.7998C246.06 72.6498 245.8 72.5698 245.43 72.5698H242.91V74.5198ZM241.4 77.6398V71.3198H245.71C246.12 71.3198 246.46 71.3598 246.74 71.4398C247.02 71.5198 247.24 71.6498 247.42 71.8198C247.6 71.9898 247.73 72.2198 247.81 72.4998C247.89 72.7798 247.94 73.1198 247.94 73.5298C247.94 74.0598 247.86 74.4898 247.71 74.8198C247.56 75.1498 247.32 75.3898 247 75.5398C246.68 75.6898 246.25 75.7698 245.74 75.7698H242.92V77.6398H241.4Z" fill="#CD3433"/>
<path d="M256.021 71.3198H257.811L254.871 76.0698C254.631 76.4498 254.431 76.7298 254.281 76.9298C254.131 77.1298 253.971 77.2798 253.821 77.3798C253.671 77.4798 253.501 77.5498 253.321 77.5898C253.131 77.6198 252.891 77.6398 252.581 77.6398H251.991V76.4498H252.291C252.871 76.4498 253.161 76.3198 253.161 76.0698C253.161 75.9898 253.121 75.8998 253.051 75.7798L250.131 71.3298H251.921L254.031 74.8898L256.021 71.3198Z" fill="#CD3433"/>
<path d="M260.39 77.6398V71.3198H261.9H265.8H267.32V77.6398H265.81V72.5698H261.9V77.6398H260.39Z" fill="#CD3433"/>
<path d="M270.12 77.6398V71.3198H271.63H275.53H277.05V77.6398H275.54V72.5698H271.63V77.6398H270.12Z" fill="#CD3433"/>
<path d="M282.63 74.8598H285.15L283.95 72.5098H283.88L282.63 74.8598ZM281.2 77.6398H279.43L282.78 71.3198H285.02L288.34 77.6398H286.56L285.75 76.0498H282.01L281.2 77.6398Z" fill="#CD3433"/>
<path d="M295.76 77.6398V71.3198H297.26V73.6798H298.16L300.92 71.3198H303.18L299.46 74.2798L303.33 77.6398H301.11L298.18 74.9398H297.26V77.6398H295.76Z" fill="#CD3433"/>
<path d="M307.35 75.3301C307.35 75.6101 307.39 75.8201 307.46 75.9801C307.53 76.1301 307.65 76.2401 307.81 76.3001C307.98 76.3601 308.22 76.3901 308.53 76.3901H310.53C310.86 76.3901 311.11 76.3601 311.27 76.3001C311.43 76.2401 311.55 76.1301 311.61 75.9901C311.68 75.8401 311.71 75.6201 311.71 75.3301V73.7201C311.71 73.4101 311.67 73.1801 311.6 73.0201C311.52 72.8601 311.4 72.7501 311.23 72.6901C311.06 72.6301 310.82 72.6001 310.5 72.6001H308.55C308.23 72.6001 307.98 72.6301 307.82 72.7001C307.65 72.7701 307.53 72.8801 307.46 73.0401C307.39 73.2001 307.35 73.4301 307.35 73.7401V75.3301ZM313.23 75.4801C313.23 75.8901 313.19 76.2301 313.12 76.5001C313.05 76.7701 312.92 76.9901 312.75 77.1601C312.58 77.3301 312.34 77.4501 312.05 77.5301C311.75 77.6101 311.39 77.6501 310.94 77.6501H308.16C307.74 77.6501 307.38 77.6101 307.08 77.5301C306.78 77.4501 306.54 77.3201 306.36 77.1501C306.17 76.9801 306.04 76.7501 305.95 76.4801C305.86 76.2101 305.82 75.8801 305.82 75.4901V73.5701C305.82 73.1301 305.86 72.7701 305.94 72.4801C306.02 72.1901 306.15 71.9701 306.33 71.8001C306.51 71.6301 306.75 71.5101 307.04 71.4401C307.33 71.3701 307.7 71.3301 308.15 71.3301H310.93C311.48 71.3301 311.91 71.4001 312.24 71.5201C312.57 71.6501 312.81 71.8801 312.97 72.2001C313.13 72.5301 313.21 72.9801 313.21 73.5601V75.4801H313.23Z" fill="#CD3433"/>
<path d="M326.09 77.6398H324.57V72.5798H324.38L322.21 77.6398H320.06L317.89 72.5798H317.69V77.6398H316.18V71.3198H318.99L321.09 76.3898H321.18L323.27 71.3198H326.09V77.6398Z" fill="#CD3433"/>
<path d="M328.96 77.6398V71.3198H330.47H334.37H335.89V77.6398H334.38V72.5698H330.47V77.6398H328.96Z" fill="#CD3433"/>
<path d="M341.48 74.8598H344L342.8 72.5098H342.73L341.48 74.8598ZM340.05 77.6398H338.29L341.64 71.3198H343.88L347.21 77.6398H345.43L344.62 76.0498H340.88L340.05 77.6398Z" fill="#CD3433"/>
<path d="M349.5 77.6398V71.3198H351.01V73.7398H354.91V71.3198H356.43V77.6398H354.91V74.9998H351.01V77.6398H349.5Z" fill="#CD3433"/>
<path d="M365.96 77.6398V72.5798H365.75L361.95 77.6398H359.35V71.3198H360.86V76.3898H361.07L364.93 71.3198H367.47V77.6398H365.96Z" fill="#CD3433"/>
<path d="M376.48 69.56C376.48 69.89 376.42 70.14 376.31 70.32C376.2 70.5 375.99 70.64 375.68 70.72C375.37 70.8 374.91 70.85 374.31 70.85C373.71 70.85 373.25 70.81 372.94 70.72C372.63 70.64 372.42 70.5 372.31 70.32C372.2 70.14 372.14 69.88 372.14 69.56V69.48H373.37V69.57C373.37 69.74 373.4 69.86 373.46 69.93C373.51 70.01 373.6 70.06 373.73 70.08C373.85 70.1 374.05 70.11 374.31 70.11C374.57 70.11 374.77 70.1 374.89 70.08C375.01 70.06 375.1 70.01 375.16 69.93C375.22 69.85 375.24 69.73 375.24 69.57V69.48H376.47V69.56H376.48ZM377.11 77.64V72.57H376.9L373.1 77.64H370.5V71.32H372.01V76.39H372.22L376.07 71.32H378.61V77.64H377.11Z" fill="#CD3433"/>
</g>
<defs>
<clipPath id="clip0_12314_86">
<rect width="379.09" height="107.36" fill="white"/>
</clipPath>
</defs>
</svg>
