<svg width="380" height="108" viewBox="0 0 380 108" fill="none" xmlns="http://www.w3.org/2000/svg">
<g clip-path="url(#clip0_12529_6677)">
<path d="M321.2 57.6701C321.21 58.3101 321.28 59.1001 321.66 59.6201C322.42 60.6801 324.61 60.7401 325.75 60.7401H335.06C337.59 60.7401 339.28 60.2301 339.28 57.4701V56.7001C338.11 57.0801 336.7 57.2501 335.03 57.2501H325.75C319.74 57.2501 316.74 55.1601 316.74 48.8501V41.6201H321.2V49.7101C321.2 50.3601 321.26 51.1901 321.66 51.7401C322.42 52.8001 324.61 52.8601 325.75 52.8601H335.06C337.59 52.8601 339.28 52.3501 339.28 49.5901V41.7001V41.6301H343.73V41.7001V48.8001V56.6901C343.73 62.9201 341.05 65.1501 335.03 65.1501H325.75C320.04 65.1501 317.06 63.2701 316.77 57.6801H321.2V57.6701Z" fill="#777773"/>
<path d="M197.49 53.3602C197.49 54.5102 197.42 56.7002 196.37 57.4602C195.82 57.8602 194.99 57.9202 194.34 57.9202H187.96H185.4V46.2102H187.96H194.21C196.98 46.2102 197.49 47.9102 197.49 50.4402V53.3602ZM180.93 57.9302H178.37H172C171.35 57.9302 170.52 57.8702 169.97 57.4702C168.91 56.7102 168.85 54.5102 168.85 53.3702V50.4402C168.85 47.9102 169.36 46.2102 172.13 46.2102H178.38H180.94V57.9302H180.93ZM198.75 42.8602C197.45 42.1102 195.71 41.7402 193.42 41.7402H187.96H178.38H172.92C169.66 41.7402 167.51 42.4802 166.18 44.0302C164.96 45.4602 164.44 47.5702 164.44 50.4602V53.3502C164.44 56.2802 164.94 58.5002 166.18 60.0002C167.49 61.5902 169.61 62.3802 172.86 62.3802H178.38H180.94V65.3402H185.41V62.4002H187.97H193.49C195.76 62.4002 197.48 62.0102 198.76 61.2302C201.04 59.8502 201.91 57.2302 201.91 53.3602V50.4702C201.9 46.6402 201 44.1702 198.75 42.8602Z" fill="#777773"/>
<path d="M253.98 41.6201H258.45V65.1401H253.98V55.6101H237.19V65.1401H232.72V41.6201H237.19V51.1401H253.98V41.6201Z" fill="#777773"/>
<path d="M157.76 41.8301H162.23V65.3501H157.76V55.8301H140.97V65.3501H136.5V41.8301H140.97V51.3601H157.76V41.8301Z" fill="#777773"/>
<path d="M129.61 48.2201V65.3501H134.08V41.8301H129.25L112.82 60.9401V41.8301H108.35V65.3501H114.91L129.61 48.2201Z" fill="#777773"/>
<path d="M281.95 48.0101V65.1401H286.42V41.6201H281.58L265.16 60.7201V41.6201H260.69V65.1401H267.24L281.95 48.0101Z" fill="#777773"/>
<path d="M226.02 48.0101V65.1401H230.49V41.6201H225.65L209.23 60.7201V41.6201H204.76V65.1401H211.31L226.02 48.0101Z" fill="#777773"/>
<path d="M304.43 46.0301V65.1401H299.96V46.0301H289.64V41.6201H314.82V46.0301H304.43Z" fill="#777773"/>
<path d="M372.59 41.6201L362.51 58.6601L352.38 41.6201H345.88V65.1401H350.35V46.4901L361.28 65.1401H363.72L374.62 46.5401V65.1401H379.09V41.6201H372.59Z" fill="#777773"/>
<path d="M53.58 22.2C70.94 22.2 85.02 36.28 85.02 53.64C85.02 54.54 84.98 55.44 84.91 56.32H77.98C78.08 55.44 78.13 54.55 78.13 53.64C78.13 40.09 67.14 29.1 53.59 29.1C44.35 29.1 36.3 34.21 32.12 41.76H73.29C74.67 44.17 75.71 46.68 76.2 49.43H27.21H22.43C24.49 34.06 37.65 22.2 53.58 22.2ZM53.58 78.18C62.18 78.18 69.74 73.75 74.13 67.06H82.02C76.99 77.71 66.14 85.09 53.58 85.09C37.65 85.09 24.48 73.23 22.42 57.86H29.4H98.2V49.43H86.28C85.95 46.81 85.31 44.22 84.34 41.76H103.03H105.95V41.43C105.23 38.36 104.25 35.4 103.03 32.56C97.37 19.34 86.55 8.87 73.11 3.64C67.08 1.3 60.53 0 53.68 0C46.83 0 40.28 1.3 34.26 3.64C25.11 7.2 17.18 13.18 11.26 20.81C4.21 29.9 0 41.29 0 53.68C0 66.07 4.21 77.46 11.26 86.55C18.96 96.47 30.05 103.63 42.8 106.26C46.31 106.98 49.95 107.37 53.68 107.37C57.39 107.37 61.01 106.98 64.51 106.26C81.89 102.7 96.2 90.74 103.03 74.8C104.25 71.96 105.23 69 105.95 65.93V65.52H103.03H32.11C36.3 73.07 44.34 78.18 53.58 78.18Z" fill="#CD3433"/>
</g>
<defs>
<clipPath id="clip0_12529_6677">
<rect width="379.09" height="107.36" fill="white"/>
</clipPath>
</defs>
</svg>
