<svg width="80" height="80" viewBox="0 0 80 80" fill="none" xmlns="http://www.w3.org/2000/svg">
    <g transform="rotate(-90 40 40)">
        <path
                d="M80 40C80 44.4183 76.4183 48 72 48C67.5817 48 64 44.4183 64 40C64 35.5817 67.5817 32 72 32C76.4183 32 80 35.5817 80 40Z"
                fill="currentColor"/>
        <path opacity="0.4" fill-rule="evenodd" clip-rule="evenodd"
              d="M11 40C11 23.9837 23.9837 11 40 11C50.7504 11 60.1346 16.8496 65.1432 25.5396C66.9795 24.6673 69.0083 24.1345 71.1485 24.0223C65.3429 12.727 53.5738 5 40 5C20.67 5 5 20.67 5 40C5 59.33 20.67 75 40 75C53.5738 75 65.3429 67.273 71.1485 55.9777C69.0083 55.8655 66.9795 55.3327 65.1432 54.4604C60.1346 63.1504 50.7504 69 40 69C23.9837 69 11 56.0163 11 40ZM68.1464 47.0124C69.2895 47.6419 70.6029 48 72 48C72.7442 48 73.4648 47.8984 74.1484 47.7082C74.7058 45.2281 75 42.6484 75 40C75 37.3516 74.7058 34.7719 74.1484 32.2918C73.4648 32.1016 72.7442 32 72 32C70.6029 32 69.2895 32.3581 68.1464 32.9876C68.7041 35.2331 69 37.582 69 40C69 42.418 68.7041 44.7669 68.1464 47.0124Z"
              fill="currentColor"/>
    </g>
</svg>
