<svg width="20" height="20" viewBox="0 0 20 20" fill="none" xmlns="http://www.w3.org/2000/svg">
    <g transform="rotate(-90 10 10)">
        <path
                d="M20 10C20 11.1046 19.1046 12 18 12C16.8954 12 16 11.1046 16 10C16 8.89543 16.8954 8 18 8C19.1046 8 20 8.89543 20 10Z"
                fill="currentColor"/>
        <path opacity="0.4" fill-rule="evenodd" clip-rule="evenodd"
              d="M2.75 10C2.75 5.99594 5.99594 2.75 10 2.75C12.6876 2.75 15.0337 4.21241 16.2858 6.3849C16.7449 6.16683 17.2521 6.03363 17.7871 6.00557C16.3357 3.18175 13.3935 1.25 10 1.25C5.16751 1.25 1.25 5.16751 1.25 10C1.25 14.8325 5.16751 18.75 10 18.75C13.3935 18.75 16.3357 16.8183 17.7871 13.9944C17.2521 13.9664 16.7449 13.8332 16.2858 13.6151C15.0337 15.7876 12.6876 17.25 10 17.25C5.99594 17.25 2.75 14.0041 2.75 10ZM17.0366 11.7531C17.3224 11.9105 17.6507 12 18 12C18.1861 12 18.3662 11.9746 18.5371 11.9271C18.6765 11.307 18.75 10.6621 18.75 10C18.75 9.3379 18.6765 8.69297 18.5371 8.07295C18.3662 8.02541 18.1861 8 18 8C17.6507 8 17.3224 8.08953 17.0366 8.2469C17.176 8.80828 17.25 9.3955 17.25 10C17.25 10.6045 17.176 11.1917 17.0366 11.7531Z"
              fill="currentColor"/>
    </g>
</svg>
